solid ascii
 facet normal 0.301909 0.924718 -0.231833
  outer loop
   vertex 15.9665 -133.818 -155
   vertex 15.5772 -133.835 -155.576
   vertex 15.6273 -133.641 -154.738
  endloop
 endfacet
 facet normal 0.238427 0.942979 -0.232258
  outer loop
   vertex 15.6273 -133.641 -154.738
   vertex 15.5772 -133.835 -155.576
   vertex 15.3102 -133.61 -154.937
  endloop
 endfacet
 facet normal -0.00550797 0.98658 0.163186
  outer loop
   vertex 15.6273 -133.641 -154.738
   vertex 15.3102 -133.61 -154.937
   vertex 15.2889 -133.726 -154.238
  endloop
 endfacet
 facet normal -0.169704 0.973076 0.155962
  outer loop
   vertex 15.2889 -133.726 -154.238
   vertex 15.3102 -133.61 -154.937
   vertex 14.993 -133.705 -154.686
  endloop
 endfacet
 facet normal -0.421668 0.849559 0.316931
  outer loop
   vertex 15.2889 -133.726 -154.238
   vertex 14.993 -133.705 -154.686
   vertex 14.7505 -134.039 -154.116
  endloop
 endfacet
 facet normal -0.635241 0.753377 0.169977
  outer loop
   vertex 14.7505 -134.039 -154.116
   vertex 14.993 -133.705 -154.686
   vertex 14.702 -133.907 -154.882
  endloop
 endfacet
 facet normal -0.618819 0.766646 0.171223
  outer loop
   vertex 14.7505 -134.039 -154.116
   vertex 14.702 -133.907 -154.882
   vertex 14.4252 -134.175 -154.679
  endloop
 endfacet
 facet normal -0.74787 0.641875 -0.169371
  outer loop
   vertex 14.4252 -134.175 -154.679
   vertex 14.702 -133.907 -154.882
   vertex 14.5391 -134.246 -155.449
  endloop
 endfacet
 facet normal -0.743189 0.647339 -0.16918
  outer loop
   vertex 14.4252 -134.175 -154.679
   vertex 14.5391 -134.246 -155.449
   vertex 14.2039 -134.477 -154.86
  endloop
 endfacet
 facet normal -0.831189 0.476916 -0.285791
  outer loop
   vertex 14.2039 -134.477 -154.86
   vertex 14.5391 -134.246 -155.449
   vertex 14.1634 -134.822 -155.318
  endloop
 endfacet
 facet normal -0.955075 0.271112 -0.119704
  outer loop
   vertex 14.2039 -134.477 -154.86
   vertex 14.1634 -134.822 -155.318
   vertex 14.0662 -134.824 -154.548
  endloop
 endfacet
 facet normal -0.9848 0.121678 -0.123949
  outer loop
   vertex 14.0662 -134.824 -154.548
   vertex 14.1634 -134.822 -155.318
   vertex 14.0181 -135.32 -154.652
  endloop
 endfacet
 facet normal -0.976094 0.0504106 0.211421
  outer loop
   vertex 14.0662 -134.824 -154.548
   vertex 14.0181 -135.32 -154.652
   vertex 14.2085 -135.049 -153.838
  endloop
 endfacet
 facet normal -0.976198 0.0569325 0.209274
  outer loop
   vertex 14.2085 -135.049 -153.838
   vertex 14.0181 -135.32 -154.652
   vertex 14.1832 -135.721 -153.773
  endloop
 endfacet
 facet normal -0.840002 0.0833273 0.536147
  outer loop
   vertex 14.2085 -135.049 -153.838
   vertex 14.1832 -135.721 -153.773
   vertex 14.6229 -135.266 -153.155
  endloop
 endfacet
 facet normal -0.833162 0.0578786 0.549992
  outer loop
   vertex 14.6229 -135.266 -153.155
   vertex 14.1832 -135.721 -153.773
   vertex 14.6308 -135.995 -153.066
  endloop
 endfacet
 facet normal -0.51407 0.0981199 0.852118
  outer loop
   vertex 14.6229 -135.266 -153.155
   vertex 14.6308 -135.995 -153.066
   vertex 15.2241 -135.419 -152.774
  endloop
 endfacet
 facet normal -0.507585 0.0889727 0.856996
  outer loop
   vertex 15.2241 -135.419 -152.774
   vertex 14.6308 -135.995 -153.066
   vertex 15.2579 -136.147 -152.679
  endloop
 endfacet
 facet normal -0.124803 0.123493 0.984466
  outer loop
   vertex 15.2241 -135.419 -152.774
   vertex 15.2579 -136.147 -152.679
   vertex 15.9074 -135.525 -152.674
  endloop
 endfacet
 facet normal -0.152734 0.15271 0.976398
  outer loop
   vertex 15.9074 -135.525 -152.674
   vertex 15.2579 -136.147 -152.679
   vertex 15.9703 -136.231 -152.554
  endloop
 endfacet
 facet normal 0.176325 0.180493 0.967642
  outer loop
   vertex 15.9074 -135.525 -152.674
   vertex 15.9703 -136.231 -152.554
   vertex 16.6347 -135.599 -152.793
  endloop
 endfacet
 facet normal 0.0667339 0.290677 0.954491
  outer loop
   vertex 16.6347 -135.599 -152.793
   vertex 15.9703 -136.231 -152.554
   vertex 16.7155 -136.301 -152.585
  endloop
 endfacet
 facet normal 0.312792 0.302936 0.900217
  outer loop
   vertex 16.6347 -135.599 -152.793
   vertex 16.7155 -136.301 -152.585
   vertex 17.3746 -135.72 -153.01
  endloop
 endfacet
 facet normal 0.219063 0.401397 0.889321
  outer loop
   vertex 17.3746 -135.72 -153.01
   vertex 16.7155 -136.301 -152.585
   vertex 17.4365 -136.396 -152.72
  endloop
 endfacet
 facet normal 0.430831 0.388686 0.814437
  outer loop
   vertex 17.3746 -135.72 -153.01
   vertex 17.4365 -136.396 -152.72
   vertex 17.9471 -135.942 -153.206
  endloop
 endfacet
 facet normal 0.506529 0.297852 0.809143
  outer loop
   vertex 17.9471 -135.942 -153.206
   vertex 17.4365 -136.396 -152.72
   vertex 18.0987 -136.531 -153.085
  endloop
 endfacet
 facet normal 0.808894 0.311542 0.49863
  outer loop
   vertex 17.9471 -135.942 -153.206
   vertex 18.0987 -136.531 -153.085
   vertex 18.4682 -136.035 -153.994
  endloop
 endfacet
 facet normal 0.793522 0.337359 0.50647
  outer loop
   vertex 18.4682 -136.035 -153.994
   vertex 18.0987 -136.531 -153.085
   vertex 18.6616 -136.81 -153.781
  endloop
 endfacet
 facet normal 0.944555 0.28191 0.16835
  outer loop
   vertex 18.4682 -136.035 -153.994
   vertex 18.6616 -136.81 -153.781
   vertex 18.79 -136.57 -154.903
  endloop
 endfacet
 facet normal 0.924527 0.33707 0.177859
  outer loop
   vertex 18.79 -136.57 -154.903
   vertex 18.6616 -136.81 -153.781
   vertex 19.018 -137.283 -154.737
  endloop
 endfacet
 facet normal 0.944549 0.253363 -0.20889
  outer loop
   vertex 18.79 -136.57 -154.903
   vertex 19.018 -137.283 -154.737
   vertex 18.7497 -137.292 -155.961
  endloop
 endfacet
 facet normal 0.875304 0.442488 -0.195057
  outer loop
   vertex 18.7497 -137.292 -155.961
   vertex 19.018 -137.283 -154.737
   vertex 19.1667 -137.97 -155.627
  endloop
 endfacet
 facet normal 0.832595 0.275815 -0.480324
  outer loop
   vertex 18.7497 -137.292 -155.961
   vertex 19.1667 -137.97 -155.627
   vertex 18.7352 -138.06 -156.427
  endloop
 endfacet
 facet normal 0.858491 0.173253 -0.482677
  outer loop
   vertex 18.7352 -138.06 -156.427
   vertex 19.1667 -137.97 -155.627
   vertex 18.9121 -138.63 -156.317
  endloop
 endfacet
 facet normal 0.537323 0.00377997 -0.843368
  outer loop
   vertex 18.7352 -138.06 -156.427
   vertex 18.9121 -138.63 -156.317
   vertex 18.3088 -138.606 -156.701
  endloop
 endfacet
 facet normal 0.501527 -0.312101 -0.806885
  outer loop
   vertex 18.3088 -138.606 -156.701
   vertex 18.9121 -138.63 -156.317
   vertex 18.487 -139.209 -156.357
  endloop
 endfacet
 facet normal 0.167893 -0.450539 -0.876828
  outer loop
   vertex 18.3088 -138.606 -156.701
   vertex 18.487 -139.209 -156.357
   vertex 17.7769 -139.192 -156.502
  endloop
 endfacet
 facet normal 0.0961628 -0.816981 -0.568591
  outer loop
   vertex 17.7769 -139.192 -156.502
   vertex 18.487 -139.209 -156.357
   vertex 18.0747 -139.646 -155.8
  endloop
 endfacet
 facet normal -0.0136053 -0.842497 -0.538529
  outer loop
   vertex 17.7769 -139.192 -156.502
   vertex 18.0747 -139.646 -155.8
   vertex 17.3227 -139.628 -155.809
  endloop
 endfacet
 facet normal -0.0214113 -0.984079 -0.176434
  outer loop
   vertex 17.3227 -139.628 -155.809
   vertex 18.0747 -139.646 -155.8
   vertex 17.7915 -139.813 -154.832
  endloop
 endfacet
 facet normal -0.0492596 -0.985344 -0.163314
  outer loop
   vertex 17.3227 -139.628 -155.809
   vertex 17.7915 -139.813 -154.832
   vertex 17.0327 -139.784 -154.777
  endloop
 endfacet
 facet normal -0.0264721 -0.987862 0.153064
  outer loop
   vertex 17.0327 -139.784 -154.777
   vertex 17.7915 -139.813 -154.832
   vertex 17.6423 -139.653 -153.822
  endloop
 endfacet
 facet normal -0.0413914 -0.985871 0.162314
  outer loop
   vertex 17.0327 -139.784 -154.777
   vertex 17.6423 -139.653 -153.822
   vertex 16.8904 -139.61 -153.754
  endloop
 endfacet
 facet normal -0.00178685 -0.855618 0.517604
  outer loop
   vertex 16.8904 -139.61 -153.754
   vertex 17.6423 -139.653 -153.822
   vertex 17.5748 -139.211 -153.092
  endloop
 endfacet
 facet normal -0.0277 -0.84319 0.536902
  outer loop
   vertex 16.8904 -139.61 -153.754
   vertex 17.5748 -139.211 -153.092
   vertex 16.8306 -139.152 -153.037
  endloop
 endfacet
 facet normal 0.0230334 -0.507553 0.861313
  outer loop
   vertex 16.8306 -139.152 -153.037
   vertex 17.5748 -139.211 -153.092
   vertex 17.5461 -138.588 -152.724
  endloop
 endfacet
 facet normal 0.0179426 -0.502724 0.864261
  outer loop
   vertex 16.8306 -139.152 -153.037
   vertex 17.5461 -138.588 -152.724
   vertex 16.8047 -138.514 -152.665
  endloop
 endfacet
 facet normal 0.0632835 -0.14863 0.986866
  outer loop
   vertex 16.8047 -138.514 -152.665
   vertex 17.5461 -138.588 -152.724
   vertex 17.5277 -137.872 -152.615
  endloop
 endfacet
 facet normal 0.0980689 -0.187099 0.977434
  outer loop
   vertex 16.8047 -138.514 -152.665
   vertex 17.5277 -137.872 -152.615
   vertex 16.7826 -137.792 -152.525
  endloop
 endfacet
 facet normal 0.122653 0.0238167 0.992164
  outer loop
   vertex 16.7826 -137.792 -152.525
   vertex 17.5277 -137.872 -152.615
   vertex 17.4941 -137.122 -152.629
  endloop
 endfacet
 facet normal 0.16238 -0.0192642 0.98654
  outer loop
   vertex 16.7826 -137.792 -152.525
   vertex 17.4941 -137.122 -152.629
   vertex 16.7537 -137.042 -152.505
  endloop
 endfacet
 facet normal 0.177263 0.136065 0.974712
  outer loop
   vertex 16.7537 -137.042 -152.505
   vertex 17.4941 -137.122 -152.629
   vertex 17.4365 -136.396 -152.72
  endloop
 endfacet
 facet normal 0.196829 0.115018 0.973668
  outer loop
   vertex 16.7537 -137.042 -152.505
   vertex 17.4365 -136.396 -152.72
   vertex 16.7155 -136.301 -152.585
  endloop
 endfacet
 facet normal -0.0911404 0.926796 -0.364339
  outer loop
   vertex 15.3102 -133.61 -154.937
   vertex 15.5772 -133.835 -155.576
   vertex 15.0225 -133.809 -155.372
  endloop
 endfacet
 facet normal -0.144186 0.854445 -0.499133
  outer loop
   vertex 15.0225 -133.809 -155.372
   vertex 15.5772 -133.835 -155.576
   vertex 15.0676 -134.215 -156.08
  endloop
 endfacet
 facet normal -0.56323 0.700828 -0.437735
  outer loop
   vertex 15.0225 -133.809 -155.372
   vertex 15.0676 -134.215 -156.08
   vertex 14.5391 -134.246 -155.449
  endloop
 endfacet
 facet normal -0.635981 0.584009 -0.504442
  outer loop
   vertex 14.5391 -134.246 -155.449
   vertex 15.0676 -134.215 -156.08
   vertex 14.5579 -134.787 -156.099
  endloop
 endfacet
 facet normal -0.809758 0.439266 -0.389021
  outer loop
   vertex 14.5391 -134.246 -155.449
   vertex 14.5579 -134.787 -156.099
   vertex 14.1634 -134.822 -155.318
  endloop
 endfacet
 facet normal -0.87171 0.236095 -0.429396
  outer loop
   vertex 14.1634 -134.822 -155.318
   vertex 14.5579 -134.787 -156.099
   vertex 14.1592 -135.421 -155.638
  endloop
 endfacet
 facet normal -0.984863 0.0871456 -0.149837
  outer loop
   vertex 14.1634 -134.822 -155.318
   vertex 14.1592 -135.421 -155.638
   vertex 14.0181 -135.32 -154.652
  endloop
 endfacet
 facet normal -0.989265 0.0244204 -0.144075
  outer loop
   vertex 14.0181 -135.32 -154.652
   vertex 14.1592 -135.421 -155.638
   vertex 14.0177 -136.002 -154.765
  endloop
 endfacet
 facet normal -0.984667 -0.0279957 0.172184
  outer loop
   vertex 14.0181 -135.32 -154.652
   vertex 14.0177 -136.002 -154.765
   vertex 14.1832 -135.721 -153.773
  endloop
 endfacet
 facet normal -0.983427 -0.0428246 0.176174
  outer loop
   vertex 14.1832 -135.721 -153.773
   vertex 14.0177 -136.002 -154.765
   vertex 14.2091 -136.465 -153.81
  endloop
 endfacet
 facet normal -0.853141 -0.055145 0.518757
  outer loop
   vertex 14.1832 -135.721 -153.773
   vertex 14.2091 -136.465 -153.81
   vertex 14.6308 -135.995 -153.066
  endloop
 endfacet
 facet normal -0.850278 -0.0635998 0.522476
  outer loop
   vertex 14.6308 -135.995 -153.066
   vertex 14.2091 -136.465 -153.81
   vertex 14.6815 -136.736 -153.074
  endloop
 endfacet
 facet normal -0.532745 -0.0452873 0.845063
  outer loop
   vertex 14.6308 -135.995 -153.066
   vertex 14.6815 -136.736 -153.074
   vertex 15.2579 -136.147 -152.679
  endloop
 endfacet
 facet normal -0.543572 -0.0304932 0.838809
  outer loop
   vertex 15.2579 -136.147 -152.679
   vertex 14.6815 -136.736 -153.074
   vertex 15.3052 -136.872 -152.674
  endloop
 endfacet
 facet normal -0.172926 -0.0054206 0.98492
  outer loop
   vertex 15.2579 -136.147 -152.679
   vertex 15.3052 -136.872 -152.674
   vertex 15.9703 -136.231 -152.554
  endloop
 endfacet
 facet normal -0.202743 0.026689 0.978868
  outer loop
   vertex 15.9703 -136.231 -152.554
   vertex 15.3052 -136.872 -152.674
   vertex 16.0078 -136.97 -152.526
  endloop
 endfacet
 facet normal 0.0452665 0.0400112 0.998173
  outer loop
   vertex 15.9703 -136.231 -152.554
   vertex 16.0078 -136.97 -152.526
   vertex 16.7155 -136.301 -152.585
  endloop
 endfacet
 facet normal -0.0176694 0.106155 0.994193
  outer loop
   vertex 16.7155 -136.301 -152.585
   vertex 16.0078 -136.97 -152.526
   vertex 16.7537 -137.042 -152.505
  endloop
 endfacet
 facet normal -0.394583 0.905899 -0.153792
  outer loop
   vertex 15.3102 -133.61 -154.937
   vertex 15.0225 -133.809 -155.372
   vertex 14.993 -133.705 -154.686
  endloop
 endfacet
 facet normal -0.491343 0.857829 -0.150704
  outer loop
   vertex 14.993 -133.705 -154.686
   vertex 15.0225 -133.809 -155.372
   vertex 14.702 -133.907 -154.882
  endloop
 endfacet
 facet normal 0.509929 0.831816 -0.219213
  outer loop
   vertex 16.7047 -134.387 -155.051
   vertex 16.2088 -134.291 -155.84
   vertex 16.303 -134.056 -154.731
  endloop
 endfacet
 facet normal 0.670833 0.711977 -0.207536
  outer loop
   vertex 16.303 -134.056 -154.731
   vertex 16.2088 -134.291 -155.84
   vertex 15.9665 -133.818 -155
  endloop
 endfacet
 facet normal 0.486542 0.860028 0.153716
  outer loop
   vertex 16.303 -134.056 -154.731
   vertex 15.9665 -133.818 -155
   vertex 15.8375 -133.91 -154.076
  endloop
 endfacet
 facet normal 0.549435 0.820358 0.158536
  outer loop
   vertex 15.8375 -133.91 -154.076
   vertex 15.9665 -133.818 -155
   vertex 15.6273 -133.641 -154.738
  endloop
 endfacet
 facet normal 0.220413 0.926183 0.305945
  outer loop
   vertex 15.8375 -133.91 -154.076
   vertex 15.6273 -133.641 -154.738
   vertex 15.2889 -133.726 -154.238
  endloop
 endfacet
 facet normal 0.456272 0.825087 -0.333237
  outer loop
   vertex 15.9665 -133.818 -155
   vertex 16.2088 -134.291 -155.84
   vertex 15.5772 -133.835 -155.576
  endloop
 endfacet
 facet normal 0.357202 0.786497 -0.503814
  outer loop
   vertex 15.5772 -133.835 -155.576
   vertex 16.2088 -134.291 -155.84
   vertex 15.583 -134.312 -156.317
  endloop
 endfacet
 facet normal -0.0908681 0.836884 -0.539786
  outer loop
   vertex 15.5772 -133.835 -155.576
   vertex 15.583 -134.312 -156.317
   vertex 15.0676 -134.215 -156.08
  endloop
 endfacet
 facet normal -0.227009 0.622748 -0.748767
  outer loop
   vertex 15.0676 -134.215 -156.08
   vertex 15.583 -134.312 -156.317
   vertex 15.1221 -134.8 -156.583
  endloop
 endfacet
 facet normal -0.551493 0.513753 -0.657201
  outer loop
   vertex 15.0676 -134.215 -156.08
   vertex 15.1221 -134.8 -156.583
   vertex 14.5579 -134.787 -156.099
  endloop
 endfacet
 facet normal -0.612879 0.317861 -0.723425
  outer loop
   vertex 14.5579 -134.787 -156.099
   vertex 15.1221 -134.8 -156.583
   vertex 14.5874 -135.457 -156.419
  endloop
 endfacet
 facet normal -0.856823 0.190609 -0.479086
  outer loop
   vertex 14.5579 -134.787 -156.099
   vertex 14.5874 -135.457 -156.419
   vertex 14.1592 -135.421 -155.638
  endloop
 endfacet
 facet normal -0.872455 0.077808 -0.48246
  outer loop
   vertex 14.1592 -135.421 -155.638
   vertex 14.5874 -135.457 -156.419
   vertex 14.1833 -136.132 -155.797
  endloop
 endfacet
 facet normal -0.987309 0.0018096 -0.158801
  outer loop
   vertex 14.1592 -135.421 -155.638
   vertex 14.1833 -136.132 -155.797
   vertex 14.0177 -136.002 -154.765
  endloop
 endfacet
 facet normal -0.98735 -0.0392634 -0.153617
  outer loop
   vertex 14.0177 -136.002 -154.765
   vertex 14.1833 -136.132 -155.797
   vertex 14.0621 -136.727 -154.865
  endloop
 endfacet
 facet normal -0.984139 -0.081974 0.157325
  outer loop
   vertex 14.0177 -136.002 -154.765
   vertex 14.0621 -136.727 -154.865
   vertex 14.2091 -136.465 -153.81
  endloop
 endfacet
 facet normal -0.973652 -0.149113 0.172534
  outer loop
   vertex 14.2091 -136.465 -153.81
   vertex 14.0621 -136.727 -154.865
   vertex 14.3117 -137.265 -153.922
  endloop
 endfacet
 facet normal -0.856552 -0.177813 0.48446
  outer loop
   vertex 14.2091 -136.465 -153.81
   vertex 14.3117 -137.265 -153.922
   vertex 14.6815 -136.736 -153.074
  endloop
 endfacet
 facet normal -0.855055 -0.181127 0.485875
  outer loop
   vertex 14.6815 -136.736 -153.074
   vertex 14.3117 -137.265 -153.922
   vertex 14.8006 -137.352 -153.094
  endloop
 endfacet
 facet normal -0.554772 -0.134047 0.821133
  outer loop
   vertex 14.6815 -136.736 -153.074
   vertex 14.8006 -137.352 -153.094
   vertex 15.3052 -136.872 -152.674
  endloop
 endfacet
 facet normal -0.523625 -0.177339 0.833287
  outer loop
   vertex 15.3052 -136.872 -152.674
   vertex 14.8006 -137.352 -153.094
   vertex 15.3341 -137.583 -152.808
  endloop
 endfacet
 facet normal -0.22801 -0.188211 0.955295
  outer loop
   vertex 15.3052 -136.872 -152.674
   vertex 15.3341 -137.583 -152.808
   vertex 16.0078 -136.97 -152.526
  endloop
 endfacet
 facet normal -0.314042 -0.0890092 0.945227
  outer loop
   vertex 16.0078 -136.97 -152.526
   vertex 15.3341 -137.583 -152.808
   vertex 16.0392 -137.716 -152.586
  endloop
 endfacet
 facet normal -0.0355807 -0.0813663 0.996049
  outer loop
   vertex 16.0078 -136.97 -152.526
   vertex 16.0392 -137.716 -152.586
   vertex 16.7537 -137.042 -152.505
  endloop
 endfacet
 facet normal -0.0849676 -0.0290202 0.995961
  outer loop
   vertex 16.7537 -137.042 -152.505
   vertex 16.0392 -137.716 -152.586
   vertex 16.7826 -137.792 -152.525
  endloop
 endfacet
 facet normal -0.623815 0.736472 -0.261658
  outer loop
   vertex 14.702 -133.907 -154.882
   vertex 15.0225 -133.809 -155.372
   vertex 14.5391 -134.246 -155.449
  endloop
 endfacet
 facet normal 0.435718 0.887716 -0.148693
  outer loop
   vertex 18.1575 -135.303 -154.909
   vertex 17.7359 -135.219 -155.646
   vertex 17.7574 -135.046 -154.546
  endloop
 endfacet
 facet normal 0.526895 0.837882 -0.142603
  outer loop
   vertex 17.7574 -135.046 -154.546
   vertex 17.7359 -135.219 -155.646
   vertex 17.2173 -134.745 -154.776
  endloop
 endfacet
 facet normal 0.390647 0.887801 0.243321
  outer loop
   vertex 17.7574 -135.046 -154.546
   vertex 17.2173 -134.745 -154.776
   vertex 17.1959 -135.059 -153.596
  endloop
 endfacet
 facet normal 0.579781 0.784702 0.219308
  outer loop
   vertex 17.1959 -135.059 -153.596
   vertex 17.2173 -134.745 -154.776
   vertex 16.4676 -134.455 -153.832
  endloop
 endfacet
 facet normal 0.426749 0.725576 0.539839
  outer loop
   vertex 17.1959 -135.059 -153.596
   vertex 16.4676 -134.455 -153.832
   vertex 16.451 -135.036 -153.038
  endloop
 endfacet
 facet normal 0.294985 0.768169 0.568243
  outer loop
   vertex 16.451 -135.036 -153.038
   vertex 16.4676 -134.455 -153.832
   vertex 15.85 -134.868 -152.954
  endloop
 endfacet
 facet normal 0.235561 0.397136 0.887014
  outer loop
   vertex 16.451 -135.036 -153.038
   vertex 15.85 -134.868 -152.954
   vertex 15.9074 -135.525 -152.674
  endloop
 endfacet
 facet normal -0.0750039 0.384115 0.920234
  outer loop
   vertex 15.9074 -135.525 -152.674
   vertex 15.85 -134.868 -152.954
   vertex 15.2241 -135.419 -152.774
  endloop
 endfacet
 facet normal 0.447506 0.869899 -0.207398
  outer loop
   vertex 17.2173 -134.745 -154.776
   vertex 17.7359 -135.219 -155.646
   vertex 16.9347 -134.891 -155.998
  endloop
 endfacet
 facet normal 0.512219 0.659442 -0.550244
  outer loop
   vertex 16.9347 -134.891 -155.998
   vertex 17.7359 -135.219 -155.646
   vertex 17.2536 -135.626 -156.582
  endloop
 endfacet
 facet normal 0.29179 0.66938 -0.68322
  outer loop
   vertex 16.9347 -134.891 -155.998
   vertex 17.2536 -135.626 -156.582
   vertex 16.546 -135.547 -156.807
  endloop
 endfacet
 facet normal 0.319396 0.312162 -0.89473
  outer loop
   vertex 16.546 -135.547 -156.807
   vertex 17.2536 -135.626 -156.582
   vertex 16.6774 -136.275 -157.014
  endloop
 endfacet
 facet normal 0.0571386 0.282719 -0.957499
  outer loop
   vertex 16.546 -135.547 -156.807
   vertex 16.6774 -136.275 -157.014
   vertex 15.9498 -136.241 -157.048
  endloop
 endfacet
 facet normal 0.0474978 0.0406847 -0.998042
  outer loop
   vertex 15.9498 -136.241 -157.048
   vertex 16.6774 -136.275 -157.014
   vertex 16.0114 -136.995 -157.075
  endloop
 endfacet
 facet normal -0.204288 0.019387 -0.978719
  outer loop
   vertex 15.9498 -136.241 -157.048
   vertex 16.0114 -136.995 -157.075
   vertex 15.3224 -136.946 -156.931
  endloop
 endfacet
 facet normal -0.214661 -0.189254 -0.958177
  outer loop
   vertex 15.3224 -136.946 -156.931
   vertex 16.0114 -136.995 -157.075
   vertex 15.3811 -137.683 -156.798
  endloop
 endfacet
 facet normal -0.511163 -0.191236 -0.837939
  outer loop
   vertex 15.3224 -136.946 -156.931
   vertex 15.3811 -137.683 -156.798
   vertex 14.862 -137.527 -156.517
  endloop
 endfacet
 facet normal -0.523626 -0.504592 -0.686442
  outer loop
   vertex 14.862 -137.527 -156.517
   vertex 15.3811 -137.683 -156.798
   vertex 14.8673 -138.264 -155.98
  endloop
 endfacet
 facet normal -0.805433 -0.353102 -0.476021
  outer loop
   vertex 14.862 -137.527 -156.517
   vertex 14.8673 -138.264 -155.98
   vertex 14.4217 -137.621 -155.702
  endloop
 endfacet
 facet normal -0.843528 -0.491463 -0.216618
  outer loop
   vertex 14.4217 -137.621 -155.702
   vertex 14.8673 -138.264 -155.98
   vertex 14.5823 -138.288 -154.816
  endloop
 endfacet
 facet normal -0.904614 -0.402929 -0.139003
  outer loop
   vertex 14.4217 -137.621 -155.702
   vertex 14.5823 -138.288 -154.816
   vertex 14.3183 -137.771 -154.594
  endloop
 endfacet
 facet normal -0.819498 -0.521356 0.237929
  outer loop
   vertex 14.3183 -137.771 -154.594
   vertex 14.5823 -138.288 -154.816
   vertex 14.7311 -137.985 -153.64
  endloop
 endfacet
 facet normal -0.872026 -0.395054 0.288969
  outer loop
   vertex 14.3183 -137.771 -154.594
   vertex 14.7311 -137.985 -153.64
   vertex 14.3117 -137.265 -153.922
  endloop
 endfacet
 facet normal -0.833589 -0.305722 0.460069
  outer loop
   vertex 14.3117 -137.265 -153.922
   vertex 14.7311 -137.985 -153.64
   vertex 14.8006 -137.352 -153.094
  endloop
 endfacet
 facet normal 0.638381 0.732922 -0.23515
  outer loop
   vertex 16.9347 -134.891 -155.998
   vertex 16.7047 -134.387 -155.051
   vertex 17.2173 -134.745 -154.776
  endloop
 endfacet
 facet normal 0.512551 0.845972 0.147049
  outer loop
   vertex 17.2173 -134.745 -154.776
   vertex 16.7047 -134.387 -155.051
   vertex 16.4676 -134.455 -153.832
  endloop
 endfacet
 facet normal 0.578127 0.770129 -0.269575
  outer loop
   vertex 16.7047 -134.387 -155.051
   vertex 16.9347 -134.891 -155.998
   vertex 16.2088 -134.291 -155.84
  endloop
 endfacet
 facet normal 0.450375 0.693155 -0.56276
  outer loop
   vertex 16.2088 -134.291 -155.84
   vertex 16.9347 -134.891 -155.998
   vertex 16.3178 -134.96 -156.577
  endloop
 endfacet
 facet normal 0.250633 0.734888 -0.630177
  outer loop
   vertex 16.2088 -134.291 -155.84
   vertex 16.3178 -134.96 -156.577
   vertex 15.7497 -134.839 -156.662
  endloop
 endfacet
 facet normal 0.216498 0.387678 -0.89601
  outer loop
   vertex 15.7497 -134.839 -156.662
   vertex 16.3178 -134.96 -156.577
   vertex 15.8571 -135.519 -156.93
  endloop
 endfacet
 facet normal -0.125984 0.34683 -0.929428
  outer loop
   vertex 15.7497 -134.839 -156.662
   vertex 15.8571 -135.519 -156.93
   vertex 15.1899 -135.482 -156.826
  endloop
 endfacet
 facet normal -0.14666 0.121105 -0.981746
  outer loop
   vertex 15.1899 -135.482 -156.826
   vertex 15.8571 -135.519 -156.93
   vertex 15.2528 -136.216 -156.926
  endloop
 endfacet
 facet normal -0.524945 0.0704683 -0.848214
  outer loop
   vertex 15.1899 -135.482 -156.826
   vertex 15.2528 -136.216 -156.926
   vertex 14.6327 -136.187 -156.54
  endloop
 endfacet
 facet normal -0.529668 -0.0565039 -0.846321
  outer loop
   vertex 14.6327 -136.187 -156.54
   vertex 15.2528 -136.216 -156.926
   vertex 14.7156 -136.919 -156.543
  endloop
 endfacet
 facet normal -0.830734 -0.0918337 -0.549043
  outer loop
   vertex 14.6327 -136.187 -156.54
   vertex 14.7156 -136.919 -156.543
   vertex 14.2503 -136.857 -155.849
  endloop
 endfacet
 facet normal -0.808486 -0.280696 -0.517263
  outer loop
   vertex 14.2503 -136.857 -155.849
   vertex 14.7156 -136.919 -156.543
   vertex 14.4217 -137.621 -155.702
  endloop
 endfacet
 facet normal -0.931397 -0.258238 -0.256538
  outer loop
   vertex 14.2503 -136.857 -155.849
   vertex 14.4217 -137.621 -155.702
   vertex 14.1449 -137.314 -155.007
  endloop
 endfacet
 facet normal -0.875211 -0.461742 -0.144226
  outer loop
   vertex 14.1449 -137.314 -155.007
   vertex 14.4217 -137.621 -155.702
   vertex 14.3183 -137.771 -154.594
  endloop
 endfacet
 facet normal -0.96218 -0.22204 0.157825
  outer loop
   vertex 14.1449 -137.314 -155.007
   vertex 14.3183 -137.771 -154.594
   vertex 14.3117 -137.265 -153.922
  endloop
 endfacet
 facet normal 0.480442 0.581679 -0.656372
  outer loop
   vertex 16.2088 -134.291 -155.84
   vertex 15.7497 -134.839 -156.662
   vertex 15.583 -134.312 -156.317
  endloop
 endfacet
 facet normal -0.0731269 0.529891 -0.844907
  outer loop
   vertex 15.583 -134.312 -156.317
   vertex 15.7497 -134.839 -156.662
   vertex 15.1221 -134.8 -156.583
  endloop
 endfacet
 facet normal 0.80073 0.571152 -0.180599
  outer loop
   vertex 18.6302 -135.994 -155.049
   vertex 18.3064 -135.739 -155.681
   vertex 18.4306 -135.6 -154.688
  endloop
 endfacet
 facet normal 0.787355 0.589188 -0.181462
  outer loop
   vertex 18.4306 -135.6 -154.688
   vertex 18.3064 -135.739 -155.681
   vertex 18.1575 -135.303 -154.909
  endloop
 endfacet
 facet normal 0.644947 0.738945 0.194947
  outer loop
   vertex 18.4306 -135.6 -154.688
   vertex 18.1575 -135.303 -154.909
   vertex 17.9974 -135.429 -153.901
  endloop
 endfacet
 facet normal 0.649385 0.734992 0.195156
  outer loop
   vertex 17.9974 -135.429 -153.901
   vertex 18.1575 -135.303 -154.909
   vertex 17.7574 -135.046 -154.546
  endloop
 endfacet
 facet normal 0.491924 0.816523 0.302162
  outer loop
   vertex 17.9974 -135.429 -153.901
   vertex 17.7574 -135.046 -154.546
   vertex 17.1959 -135.059 -153.596
  endloop
 endfacet
 facet normal 0.636687 0.717295 -0.283049
  outer loop
   vertex 18.1575 -135.303 -154.909
   vertex 18.3064 -135.739 -155.681
   vertex 17.7359 -135.219 -155.646
  endloop
 endfacet
 facet normal 0.588202 0.674958 -0.445476
  outer loop
   vertex 17.7359 -135.219 -155.646
   vertex 18.3064 -135.739 -155.681
   vertex 17.8284 -135.797 -156.4
  endloop
 endfacet
 facet normal 0.392434 0.752484 -0.528927
  outer loop
   vertex 17.7359 -135.219 -155.646
   vertex 17.8284 -135.797 -156.4
   vertex 17.2536 -135.626 -156.582
  endloop
 endfacet
 facet normal 0.386104 0.42327 -0.819614
  outer loop
   vertex 17.2536 -135.626 -156.582
   vertex 17.8284 -135.797 -156.4
   vertex 17.3851 -136.33 -156.884
  endloop
 endfacet
 facet normal 0.195967 0.416888 -0.887582
  outer loop
   vertex 17.2536 -135.626 -156.582
   vertex 17.3851 -136.33 -156.884
   vertex 16.6774 -136.275 -157.014
  endloop
 endfacet
 facet normal 0.189271 0.122068 -0.974308
  outer loop
   vertex 16.6774 -136.275 -157.014
   vertex 17.3851 -136.33 -156.884
   vertex 16.7458 -137.03 -157.096
  endloop
 endfacet
 facet normal -0.0223799 0.105044 -0.994216
  outer loop
   vertex 16.6774 -136.275 -157.014
   vertex 16.7458 -137.03 -157.096
   vertex 16.0114 -136.995 -157.075
  endloop
 endfacet
 facet normal -0.0314621 -0.0810016 -0.996217
  outer loop
   vertex 16.0114 -136.995 -157.075
   vertex 16.7458 -137.03 -157.096
   vertex 16.0672 -137.753 -157.015
  endloop
 endfacet
 facet normal -0.309553 -0.0974541 -0.945875
  outer loop
   vertex 16.0114 -136.995 -157.075
   vertex 16.0672 -137.753 -157.015
   vertex 15.3811 -137.683 -156.798
  endloop
 endfacet
 facet normal -0.315598 -0.310167 -0.896769
  outer loop
   vertex 15.3811 -137.683 -156.798
   vertex 16.0672 -137.753 -157.015
   vertex 15.4895 -138.419 -156.582
  endloop
 endfacet
 facet normal -0.70157 -0.294259 -0.649008
  outer loop
   vertex 15.3811 -137.683 -156.798
   vertex 15.4895 -138.419 -156.582
   vertex 14.8673 -138.264 -155.98
  endloop
 endfacet
 facet normal -0.6653 -0.49331 -0.560375
  outer loop
   vertex 14.8673 -138.264 -155.98
   vertex 15.4895 -138.419 -156.582
   vertex 15.1968 -139.038 -155.69
  endloop
 endfacet
 facet normal -0.829802 -0.467521 -0.304718
  outer loop
   vertex 14.8673 -138.264 -155.98
   vertex 15.1968 -139.038 -155.69
   vertex 14.8306 -138.808 -155.044
  endloop
 endfacet
 facet normal -0.744937 -0.637662 -0.196099
  outer loop
   vertex 14.8306 -138.808 -155.044
   vertex 15.1968 -139.038 -155.69
   vertex 15.0693 -139.197 -154.687
  endloop
 endfacet
 facet normal -0.898303 -0.412229 0.152051
  outer loop
   vertex 14.8306 -138.808 -155.044
   vertex 15.0693 -139.197 -154.687
   vertex 15.0017 -138.78 -153.958
  endloop
 endfacet
 facet normal -0.722887 -0.626803 0.29078
  outer loop
   vertex 15.0017 -138.78 -153.958
   vertex 15.0693 -139.197 -154.687
   vertex 15.4942 -139.334 -153.926
  endloop
 endfacet
 facet normal -0.683059 -0.582777 0.440229
  outer loop
   vertex 15.0017 -138.78 -153.958
   vertex 15.4942 -139.334 -153.926
   vertex 15.5588 -138.866 -153.207
  endloop
 endfacet
 facet normal -0.373189 -0.76215 0.529016
  outer loop
   vertex 15.5588 -138.866 -153.207
   vertex 15.4942 -139.334 -153.926
   vertex 16.1167 -139.052 -153.081
  endloop
 endfacet
 facet normal -0.341141 -0.474733 0.811327
  outer loop
   vertex 15.5588 -138.866 -153.207
   vertex 16.1167 -139.052 -153.081
   vertex 16.0864 -138.425 -152.727
  endloop
 endfacet
 facet normal -0.134743 -0.492231 0.859973
  outer loop
   vertex 16.0864 -138.425 -152.727
   vertex 16.1167 -139.052 -153.081
   vertex 16.8047 -138.514 -152.665
  endloop
 endfacet
 facet normal -0.107712 -0.192967 0.975275
  outer loop
   vertex 16.0864 -138.425 -152.727
   vertex 16.8047 -138.514 -152.665
   vertex 16.7826 -137.792 -152.525
  endloop
 endfacet
 facet normal 0.569831 0.482463 -0.665223
  outer loop
   vertex 16.9347 -134.891 -155.998
   vertex 16.546 -135.547 -156.807
   vertex 16.3178 -134.96 -156.577
  endloop
 endfacet
 facet normal 0.175927 0.418054 -0.891224
  outer loop
   vertex 16.3178 -134.96 -156.577
   vertex 16.546 -135.547 -156.807
   vertex 15.8571 -135.519 -156.93
  endloop
 endfacet
 facet normal -0.097743 0.325114 -0.94061
  outer loop
   vertex 15.7497 -134.839 -156.662
   vertex 15.1899 -135.482 -156.826
   vertex 15.1221 -134.8 -156.583
  endloop
 endfacet
 facet normal -0.537563 0.234892 -0.809847
  outer loop
   vertex 15.1221 -134.8 -156.583
   vertex 15.1899 -135.482 -156.826
   vertex 14.5874 -135.457 -156.419
  endloop
 endfacet
 facet normal 0.875938 0.381174 -0.295702
  outer loop
   vertex 18.6302 -135.994 -155.049
   vertex 18.5454 -136.455 -155.895
   vertex 18.3064 -135.739 -155.681
  endloop
 endfacet
 facet normal 0.735941 0.407695 -0.540532
  outer loop
   vertex 18.3064 -135.739 -155.681
   vertex 18.5454 -136.455 -155.895
   vertex 18.0257 -136.373 -156.541
  endloop
 endfacet
 facet normal 0.752816 0.388132 -0.531622
  outer loop
   vertex 18.3064 -135.739 -155.681
   vertex 18.0257 -136.373 -156.541
   vertex 17.8284 -135.797 -156.4
  endloop
 endfacet
 facet normal 0.459573 0.356486 -0.813456
  outer loop
   vertex 17.8284 -135.797 -156.4
   vertex 18.0257 -136.373 -156.541
   vertex 17.3851 -136.33 -156.884
  endloop
 endfacet
 facet normal 0.954438 0.211146 -0.210869
  outer loop
   vertex 18.6302 -135.994 -155.049
   vertex 18.79 -136.57 -154.903
   vertex 18.5454 -136.455 -155.895
  endloop
 endfacet
 facet normal 0.947041 0.247293 -0.204842
  outer loop
   vertex 18.5454 -136.455 -155.895
   vertex 18.79 -136.57 -154.903
   vertex 18.7497 -137.292 -155.961
  endloop
 endfacet
 facet normal 0.758086 0.233064 -0.609088
  outer loop
   vertex 18.5454 -136.455 -155.895
   vertex 18.7497 -137.292 -155.961
   vertex 18.1517 -137.122 -156.64
  endloop
 endfacet
 facet normal 0.760381 0.146363 -0.632771
  outer loop
   vertex 18.1517 -137.122 -156.64
   vertex 18.7497 -137.292 -155.961
   vertex 18.2217 -137.899 -156.736
  endloop
 endfacet
 facet normal 0.349692 0.145333 -0.925523
  outer loop
   vertex 18.1517 -137.122 -156.64
   vertex 18.2217 -137.899 -156.736
   vertex 17.5361 -137.825 -156.983
  endloop
 endfacet
 facet normal 0.326794 -0.11155 -0.938489
  outer loop
   vertex 17.5361 -137.825 -156.983
   vertex 18.2217 -137.899 -156.736
   vertex 17.6153 -138.558 -156.869
  endloop
 endfacet
 facet normal 0.0669742 -0.147226 -0.986833
  outer loop
   vertex 17.5361 -137.825 -156.983
   vertex 17.6153 -138.558 -156.869
   vertex 16.8743 -138.519 -156.925
  endloop
 endfacet
 facet normal 0.038069 -0.510552 -0.859004
  outer loop
   vertex 16.8743 -138.519 -156.925
   vertex 17.6153 -138.558 -156.869
   vertex 17.0242 -139.163 -156.535
  endloop
 endfacet
 facet normal -0.0991449 -0.531644 -0.841145
  outer loop
   vertex 16.8743 -138.519 -156.925
   vertex 17.0242 -139.163 -156.535
   vertex 16.2851 -139.105 -156.484
  endloop
 endfacet
 facet normal -0.102178 -0.84702 -0.521648
  outer loop
   vertex 16.2851 -139.105 -156.484
   vertex 17.0242 -139.163 -156.535
   vertex 16.5556 -139.586 -155.757
  endloop
 endfacet
 facet normal -0.226282 -0.849278 -0.476994
  outer loop
   vertex 16.2851 -139.105 -156.484
   vertex 16.5556 -139.586 -155.757
   vertex 15.7875 -139.474 -155.593
  endloop
 endfacet
 facet normal -0.178706 -0.968483 -0.173509
  outer loop
   vertex 15.7875 -139.474 -155.593
   vertex 16.5556 -139.586 -155.757
   vertex 16.2964 -139.728 -154.696
  endloop
 endfacet
 facet normal -0.200788 -0.966415 -0.160393
  outer loop
   vertex 15.7875 -139.474 -155.593
   vertex 16.2964 -139.728 -154.696
   vertex 15.7395 -139.636 -154.555
  endloop
 endfacet
 facet normal -0.114379 -0.975761 0.186568
  outer loop
   vertex 15.7395 -139.636 -154.555
   vertex 16.2964 -139.728 -154.696
   vertex 16.174 -139.531 -153.738
  endloop
 endfacet
 facet normal -0.34077 -0.892225 0.296328
  outer loop
   vertex 15.7395 -139.636 -154.555
   vertex 16.174 -139.531 -153.738
   vertex 15.4942 -139.334 -153.926
  endloop
 endfacet
 facet normal -0.367938 -0.766389 0.526563
  outer loop
   vertex 15.4942 -139.334 -153.926
   vertex 16.174 -139.531 -153.738
   vertex 16.1167 -139.052 -153.081
  endloop
 endfacet
 facet normal 0.179863 0.18052 -0.966986
  outer loop
   vertex 16.546 -135.547 -156.807
   vertex 15.9498 -136.241 -157.048
   vertex 15.8571 -135.519 -156.93
  endloop
 endfacet
 facet normal -0.165724 0.137671 -0.976515
  outer loop
   vertex 15.8571 -135.519 -156.93
   vertex 15.9498 -136.241 -157.048
   vertex 15.2528 -136.216 -156.926
  endloop
 endfacet
 facet normal -0.554146 0.102537 -0.82608
  outer loop
   vertex 15.1899 -135.482 -156.826
   vertex 14.6327 -136.187 -156.54
   vertex 14.5874 -135.457 -156.419
  endloop
 endfacet
 facet normal -0.854075 0.0330664 -0.519097
  outer loop
   vertex 14.5874 -135.457 -156.419
   vertex 14.6327 -136.187 -156.54
   vertex 14.1833 -136.132 -155.797
  endloop
 endfacet
 facet normal 0.774621 0.209496 -0.596719
  outer loop
   vertex 18.5454 -136.455 -155.895
   vertex 18.1517 -137.122 -156.64
   vertex 18.0257 -136.373 -156.541
  endloop
 endfacet
 facet normal 0.448658 0.191403 -0.872967
  outer loop
   vertex 18.0257 -136.373 -156.541
   vertex 18.1517 -137.122 -156.64
   vertex 17.4735 -137.063 -156.976
  endloop
 endfacet
 facet normal 0.474146 0.16579 -0.864696
  outer loop
   vertex 18.0257 -136.373 -156.541
   vertex 17.4735 -137.063 -156.976
   vertex 17.3851 -136.33 -156.884
  endloop
 endfacet
 facet normal 0.167102 0.142677 -0.975561
  outer loop
   vertex 17.3851 -136.33 -156.884
   vertex 17.4735 -137.063 -156.976
   vertex 16.7458 -137.03 -157.096
  endloop
 endfacet
 facet normal -0.172435 -0.00997614 -0.98497
  outer loop
   vertex 15.9498 -136.241 -157.048
   vertex 15.3224 -136.946 -156.931
   vertex 15.2528 -136.216 -156.926
  endloop
 endfacet
 facet normal -0.539524 -0.0459199 -0.840717
  outer loop
   vertex 15.2528 -136.216 -156.926
   vertex 15.3224 -136.946 -156.931
   vertex 14.7156 -136.919 -156.543
  endloop
 endfacet
 facet normal -0.85626 -0.0419999 -0.514835
  outer loop
   vertex 14.6327 -136.187 -156.54
   vertex 14.2503 -136.857 -155.849
   vertex 14.1833 -136.132 -155.797
  endloop
 endfacet
 facet normal -0.981055 -0.0777891 -0.177426
  outer loop
   vertex 14.1833 -136.132 -155.797
   vertex 14.2503 -136.857 -155.849
   vertex 14.0621 -136.727 -154.865
  endloop
 endfacet
 facet normal 0.877385 0.460953 -0.133112
  outer loop
   vertex 19.4312 -138.278 -154.95
   vertex 19.1667 -137.97 -155.627
   vertex 19.2572 -137.832 -154.555
  endloop
 endfacet
 facet normal 0.924132 0.361293 -0.124285
  outer loop
   vertex 19.2572 -137.832 -154.555
   vertex 19.1667 -137.97 -155.627
   vertex 19.018 -137.283 -154.737
  endloop
 endfacet
 facet normal 0.851366 0.456391 0.258618
  outer loop
   vertex 19.2572 -137.832 -154.555
   vertex 19.018 -137.283 -154.737
   vertex 18.8536 -137.619 -153.603
  endloop
 endfacet
 facet normal 0.938258 0.270154 0.216075
  outer loop
   vertex 18.8536 -137.619 -153.603
   vertex 19.018 -137.283 -154.737
   vertex 18.6616 -136.81 -153.781
  endloop
 endfacet
 facet normal 0.739916 0.306929 0.598598
  outer loop
   vertex 18.8536 -137.619 -153.603
   vertex 18.6616 -136.81 -153.781
   vertex 18.1976 -137.276 -152.968
  endloop
 endfacet
 facet normal 0.799346 0.195048 0.568333
  outer loop
   vertex 18.1976 -137.276 -152.968
   vertex 18.6616 -136.81 -153.781
   vertex 18.0987 -136.531 -153.085
  endloop
 endfacet
 facet normal 0.4604 0.196674 0.865651
  outer loop
   vertex 18.1976 -137.276 -152.968
   vertex 18.0987 -136.531 -153.085
   vertex 17.4941 -137.122 -152.629
  endloop
 endfacet
 facet normal 0.500215 0.146522 0.853415
  outer loop
   vertex 17.4941 -137.122 -152.629
   vertex 18.0987 -136.531 -153.085
   vertex 17.4365 -136.396 -152.72
  endloop
 endfacet
 facet normal 0.560596 0.421912 -0.712546
  outer loop
   vertex 18.7497 -137.292 -155.961
   vertex 18.7352 -138.06 -156.427
   vertex 18.2217 -137.899 -156.736
  endloop
 endfacet
 facet normal 0.520068 0.0225133 -0.853828
  outer loop
   vertex 18.2217 -137.899 -156.736
   vertex 18.7352 -138.06 -156.427
   vertex 18.3088 -138.606 -156.701
  endloop
 endfacet
 facet normal 0.233187 -0.0186036 -0.972254
  outer loop
   vertex 18.2217 -137.899 -156.736
   vertex 18.3088 -138.606 -156.701
   vertex 17.6153 -138.558 -156.869
  endloop
 endfacet
 facet normal 0.178294 -0.457965 -0.870907
  outer loop
   vertex 17.6153 -138.558 -156.869
   vertex 18.3088 -138.606 -156.701
   vertex 17.7769 -139.192 -156.502
  endloop
 endfacet
 facet normal 0.0189802 -0.496711 -0.867708
  outer loop
   vertex 17.6153 -138.558 -156.869
   vertex 17.7769 -139.192 -156.502
   vertex 17.0242 -139.163 -156.535
  endloop
 endfacet
 facet normal -0.0087658 -0.843986 -0.536294
  outer loop
   vertex 17.0242 -139.163 -156.535
   vertex 17.7769 -139.192 -156.502
   vertex 17.3227 -139.628 -155.809
  endloop
 endfacet
 facet normal -0.0813518 -0.854445 -0.513134
  outer loop
   vertex 17.0242 -139.163 -156.535
   vertex 17.3227 -139.628 -155.809
   vertex 16.5556 -139.586 -155.757
  endloop
 endfacet
 facet normal -0.0650792 -0.983719 -0.167514
  outer loop
   vertex 16.5556 -139.586 -155.757
   vertex 17.3227 -139.628 -155.809
   vertex 17.0327 -139.784 -154.777
  endloop
 endfacet
 facet normal -0.0920457 -0.983713 -0.154387
  outer loop
   vertex 16.5556 -139.586 -155.757
   vertex 17.0327 -139.784 -154.777
   vertex 16.2964 -139.728 -154.696
  endloop
 endfacet
 facet normal -0.0575098 -0.985441 0.159998
  outer loop
   vertex 16.2964 -139.728 -154.696
   vertex 17.0327 -139.784 -154.777
   vertex 16.8904 -139.61 -153.754
  endloop
 endfacet
 facet normal -0.103819 -0.976647 0.1881
  outer loop
   vertex 16.2964 -139.728 -154.696
   vertex 16.8904 -139.61 -153.754
   vertex 16.174 -139.531 -153.738
  endloop
 endfacet
 facet normal -0.0815408 -0.842734 0.53212
  outer loop
   vertex 16.174 -139.531 -153.738
   vertex 16.8904 -139.61 -153.754
   vertex 16.8306 -139.152 -153.037
  endloop
 endfacet
 facet normal -0.148043 -0.805282 0.574111
  outer loop
   vertex 16.174 -139.531 -153.738
   vertex 16.8306 -139.152 -153.037
   vertex 16.1167 -139.052 -153.081
  endloop
 endfacet
 facet normal -0.123304 -0.503244 0.855302
  outer loop
   vertex 16.1167 -139.052 -153.081
   vertex 16.8306 -139.152 -153.037
   vertex 16.8047 -138.514 -152.665
  endloop
 endfacet
 facet normal 0.446218 0.0453649 -0.893774
  outer loop
   vertex 18.1517 -137.122 -156.64
   vertex 17.5361 -137.825 -156.983
   vertex 17.4735 -137.063 -156.976
  endloop
 endfacet
 facet normal 0.123423 0.0198378 -0.992156
  outer loop
   vertex 17.4735 -137.063 -156.976
   vertex 17.5361 -137.825 -156.983
   vertex 16.8003 -137.788 -157.074
  endloop
 endfacet
 facet normal 0.161786 -0.0165068 -0.986688
  outer loop
   vertex 17.4735 -137.063 -156.976
   vertex 16.8003 -137.788 -157.074
   vertex 16.7458 -137.03 -157.096
  endloop
 endfacet
 facet normal -0.0812385 -0.0342544 -0.996106
  outer loop
   vertex 16.7458 -137.03 -157.096
   vertex 16.8003 -137.788 -157.074
   vertex 16.0672 -137.753 -157.015
  endloop
 endfacet
 facet normal -0.536532 -0.163913 -0.827808
  outer loop
   vertex 15.3224 -136.946 -156.931
   vertex 14.862 -137.527 -156.517
   vertex 14.7156 -136.919 -156.543
  endloop
 endfacet
 facet normal -0.846334 -0.224094 -0.483219
  outer loop
   vertex 14.7156 -136.919 -156.543
   vertex 14.862 -137.527 -156.517
   vertex 14.4217 -137.621 -155.702
  endloop
 endfacet
 facet normal -0.979897 -0.0962073 -0.174772
  outer loop
   vertex 14.2503 -136.857 -155.849
   vertex 14.1449 -137.314 -155.007
   vertex 14.0621 -136.727 -154.865
  endloop
 endfacet
 facet normal -0.971905 -0.175156 0.157226
  outer loop
   vertex 14.0621 -136.727 -154.865
   vertex 14.1449 -137.314 -155.007
   vertex 14.3117 -137.265 -153.922
  endloop
 endfacet
 facet normal 0.932485 0.267524 -0.242699
  outer loop
   vertex 19.4312 -138.278 -154.95
   vertex 19.3619 -138.685 -155.666
   vertex 19.1667 -137.97 -155.627
  endloop
 endfacet
 facet normal 0.806517 0.24915 -0.536147
  outer loop
   vertex 19.1667 -137.97 -155.627
   vertex 19.3619 -138.685 -155.666
   vertex 18.9121 -138.63 -156.317
  endloop
 endfacet
 facet normal 0.978772 0.122297 -0.164463
  outer loop
   vertex 19.4312 -138.278 -154.95
   vertex 19.5251 -138.802 -154.781
   vertex 19.3619 -138.685 -155.666
  endloop
 endfacet
 facet normal 0.976064 0.146445 -0.160789
  outer loop
   vertex 19.3619 -138.685 -155.666
   vertex 19.5251 -138.802 -154.781
   vertex 19.486 -139.254 -155.431
  endloop
 endfacet
 facet normal 0.829212 -0.0491191 -0.556771
  outer loop
   vertex 19.3619 -138.685 -155.666
   vertex 19.486 -139.254 -155.431
   vertex 19.0905 -139.223 -156.023
  endloop
 endfacet
 facet normal 0.786136 -0.298864 -0.54099
  outer loop
   vertex 19.0905 -139.223 -156.023
   vertex 19.486 -139.254 -155.431
   vertex 19.2854 -139.648 -155.505
  endloop
 endfacet
 facet normal 0.279035 -0.688364 -0.669548
  outer loop
   vertex 19.0905 -139.223 -156.023
   vertex 19.2854 -139.648 -155.505
   vertex 18.7578 -139.654 -155.719
  endloop
 endfacet
 facet normal 0.133932 -0.943344 -0.303587
  outer loop
   vertex 18.7578 -139.654 -155.719
   vertex 19.2854 -139.648 -155.505
   vertex 19.0906 -139.851 -154.961
  endloop
 endfacet
 facet normal -0.0490946 -0.971827 -0.230524
  outer loop
   vertex 18.7578 -139.654 -155.719
   vertex 19.0906 -139.851 -154.961
   vertex 18.5057 -139.837 -154.896
  endloop
 endfacet
 facet normal -0.0108918 -0.993405 0.114136
  outer loop
   vertex 18.5057 -139.837 -154.896
   vertex 19.0906 -139.851 -154.961
   vertex 18.9831 -139.761 -154.195
  endloop
 endfacet
 facet normal -0.0487559 -0.989024 0.139478
  outer loop
   vertex 18.5057 -139.837 -154.896
   vertex 18.9831 -139.761 -154.195
   vertex 18.3669 -139.697 -153.957
  endloop
 endfacet
 facet normal 0.122613 -0.832427 0.5404
  outer loop
   vertex 18.3669 -139.697 -153.957
   vertex 18.9831 -139.761 -154.195
   vertex 18.9335 -139.38 -153.596
  endloop
 endfacet
 facet normal 0.13909 -0.841311 0.52235
  outer loop
   vertex 18.3669 -139.697 -153.957
   vertex 18.9335 -139.38 -153.596
   vertex 18.2971 -139.274 -153.257
  endloop
 endfacet
 facet normal 0.37404 -0.414274 0.829742
  outer loop
   vertex 18.2971 -139.274 -153.257
   vertex 18.9335 -139.38 -153.596
   vertex 18.875 -138.804 -153.283
  endloop
 endfacet
 facet normal 0.403901 -0.452941 0.794801
  outer loop
   vertex 18.2971 -139.274 -153.257
   vertex 18.875 -138.804 -153.283
   vertex 18.2484 -138.684 -152.896
  endloop
 endfacet
 facet normal 0.511673 -0.0839238 0.855071
  outer loop
   vertex 18.2484 -138.684 -152.896
   vertex 18.875 -138.804 -153.283
   vertex 18.7607 -138.244 -153.159
  endloop
 endfacet
 facet normal 0.483615 -0.0397201 0.874379
  outer loop
   vertex 18.2484 -138.684 -152.896
   vertex 18.7607 -138.244 -153.159
   vertex 18.2318 -138.014 -152.856
  endloop
 endfacet
 facet normal 0.581292 0.411974 0.701696
  outer loop
   vertex 18.2318 -138.014 -152.856
   vertex 18.7607 -138.244 -153.159
   vertex 18.8536 -137.619 -153.603
  endloop
 endfacet
 facet normal 0.724923 0.135985 0.675274
  outer loop
   vertex 18.2318 -138.014 -152.856
   vertex 18.8536 -137.619 -153.603
   vertex 18.1976 -137.276 -152.968
  endloop
 endfacet
 facet normal 0.110916 -0.188236 -0.975841
  outer loop
   vertex 17.5361 -137.825 -156.983
   vertex 16.8743 -138.519 -156.925
   vertex 16.8003 -137.788 -157.074
  endloop
 endfacet
 facet normal -0.0916334 -0.208345 -0.973753
  outer loop
   vertex 16.8003 -137.788 -157.074
   vertex 16.8743 -138.519 -156.925
   vertex 16.1551 -138.47 -156.867
  endloop
 endfacet
 facet normal -0.0879606 -0.211705 -0.973367
  outer loop
   vertex 16.8003 -137.788 -157.074
   vertex 16.1551 -138.47 -156.867
   vertex 16.0672 -137.753 -157.015
  endloop
 endfacet
 facet normal -0.398513 -0.232044 -0.887323
  outer loop
   vertex 16.0672 -137.753 -157.015
   vertex 16.1551 -138.47 -156.867
   vertex 15.4895 -138.419 -156.582
  endloop
 endfacet
 facet normal 0.989949 0.0809041 -0.115999
  outer loop
   vertex 19.5251 -138.802 -154.781
   vertex 19.5834 -139.35 -154.666
   vertex 19.486 -139.254 -155.431
  endloop
 endfacet
 facet normal 0.988515 0.0998314 -0.113458
  outer loop
   vertex 19.486 -139.254 -155.431
   vertex 19.5834 -139.35 -154.666
   vertex 19.5574 -139.619 -155.129
  endloop
 endfacet
 facet normal 0.784251 -0.297224 -0.544618
  outer loop
   vertex 19.486 -139.254 -155.431
   vertex 19.5574 -139.619 -155.129
   vertex 19.2854 -139.648 -155.505
  endloop
 endfacet
 facet normal 0.615175 -0.68407 -0.391929
  outer loop
   vertex 19.2854 -139.648 -155.505
   vertex 19.5574 -139.619 -155.129
   vertex 19.4423 -139.814 -154.969
  endloop
 endfacet
 facet normal 0.0914021 -0.94339 -0.318845
  outer loop
   vertex 19.2854 -139.648 -155.505
   vertex 19.4423 -139.814 -154.969
   vertex 19.0906 -139.851 -154.961
  endloop
 endfacet
 facet normal 0.104308 -0.994332 0.0205951
  outer loop
   vertex 19.0906 -139.851 -154.961
   vertex 19.4423 -139.814 -154.969
   vertex 19.3643 -139.812 -154.484
  endloop
 endfacet
 facet normal -0.0494936 -0.992847 0.108654
  outer loop
   vertex 19.0906 -139.851 -154.961
   vertex 19.3643 -139.812 -154.484
   vertex 18.9831 -139.761 -154.195
  endloop
 endfacet
 facet normal 0.310764 -0.777431 0.546833
  outer loop
   vertex 18.9831 -139.761 -154.195
   vertex 19.3643 -139.812 -154.484
   vertex 19.384 -139.544 -154.114
  endloop
 endfacet
 facet normal 0.319801 -0.786917 0.52772
  outer loop
   vertex 18.9831 -139.761 -154.195
   vertex 19.384 -139.544 -154.114
   vertex 18.9335 -139.38 -153.596
  endloop
 endfacet
 facet normal 0.706806 -0.200336 0.678447
  outer loop
   vertex 18.9335 -139.38 -153.596
   vertex 19.384 -139.544 -154.114
   vertex 19.3568 -139.024 -153.932
  endloop
 endfacet
 facet normal 0.727464 -0.269919 0.630824
  outer loop
   vertex 18.9335 -139.38 -153.596
   vertex 19.3568 -139.024 -153.932
   vertex 18.875 -138.804 -153.283
  endloop
 endfacet
 facet normal 0.816627 0.123516 0.563795
  outer loop
   vertex 18.875 -138.804 -153.283
   vertex 19.3568 -139.024 -153.932
   vertex 19.2546 -138.322 -153.938
  endloop
 endfacet
 facet normal 0.845707 0.0556852 0.530734
  outer loop
   vertex 18.875 -138.804 -153.283
   vertex 19.2546 -138.322 -153.938
   vertex 18.7607 -138.244 -153.159
  endloop
 endfacet
 facet normal 0.831439 0.234286 0.503805
  outer loop
   vertex 18.7607 -138.244 -153.159
   vertex 19.2546 -138.322 -153.938
   vertex 18.8536 -137.619 -153.603
  endloop
 endfacet
 facet normal 0.820731 -0.035946 -0.570183
  outer loop
   vertex 19.3619 -138.685 -155.666
   vertex 19.0905 -139.223 -156.023
   vertex 18.9121 -138.63 -156.317
  endloop
 endfacet
 facet normal 0.460277 -0.279355 -0.842678
  outer loop
   vertex 18.9121 -138.63 -156.317
   vertex 19.0905 -139.223 -156.023
   vertex 18.487 -139.209 -156.357
  endloop
 endfacet
 facet normal -0.102942 -0.528821 -0.842467
  outer loop
   vertex 16.8743 -138.519 -156.925
   vertex 16.2851 -139.105 -156.484
   vertex 16.1551 -138.47 -156.867
  endloop
 endfacet
 facet normal -0.257604 -0.536895 -0.803358
  outer loop
   vertex 16.1551 -138.47 -156.867
   vertex 16.2851 -139.105 -156.484
   vertex 15.702 -138.978 -156.383
  endloop
 endfacet
 facet normal -0.383036 -0.435645 -0.814553
  outer loop
   vertex 16.1551 -138.47 -156.867
   vertex 15.702 -138.978 -156.383
   vertex 15.4895 -138.419 -156.582
  endloop
 endfacet
 facet normal -0.697975 -0.460559 -0.548376
  outer loop
   vertex 15.4895 -138.419 -156.582
   vertex 15.702 -138.978 -156.383
   vertex 15.1968 -139.038 -155.69
  endloop
 endfacet
 facet normal -0.91374 -0.33452 -0.230598
  outer loop
   vertex 14.8673 -138.264 -155.98
   vertex 14.8306 -138.808 -155.044
   vertex 14.5823 -138.288 -154.816
  endloop
 endfacet
 facet normal -0.865668 -0.478058 0.148592
  outer loop
   vertex 14.5823 -138.288 -154.816
   vertex 14.8306 -138.808 -155.044
   vertex 15.0017 -138.78 -153.958
  endloop
 endfacet
 facet normal -0.895605 -0.390119 0.213772
  outer loop
   vertex 14.5823 -138.288 -154.816
   vertex 15.0017 -138.78 -153.958
   vertex 14.7311 -137.985 -153.64
  endloop
 endfacet
 facet normal -0.706483 -0.456458 0.540858
  outer loop
   vertex 14.7311 -137.985 -153.64
   vertex 15.0017 -138.78 -153.958
   vertex 15.4013 -138.296 -153.027
  endloop
 endfacet
 facet normal -0.714905 -0.266431 0.646472
  outer loop
   vertex 14.7311 -137.985 -153.64
   vertex 15.4013 -138.296 -153.027
   vertex 15.3341 -137.583 -152.808
  endloop
 endfacet
 facet normal -0.337509 -0.30583 0.890256
  outer loop
   vertex 15.3341 -137.583 -152.808
   vertex 15.4013 -138.296 -153.027
   vertex 16.0392 -137.716 -152.586
  endloop
 endfacet
 facet normal 0.997662 -0.0660057 -0.0177198
  outer loop
   vertex 19.5834 -139.35 -154.666
   vertex 19.5611 -139.693 -154.641
   vertex 19.5574 -139.619 -155.129
  endloop
 endfacet
 facet normal 0.822836 -0.560766 -0.0920984
  outer loop
   vertex 19.5574 -139.619 -155.129
   vertex 19.5611 -139.693 -154.641
   vertex 19.4423 -139.814 -154.969
  endloop
 endfacet
 facet normal 0.332662 -0.701788 -0.629944
  outer loop
   vertex 19.0905 -139.223 -156.023
   vertex 18.7578 -139.654 -155.719
   vertex 18.487 -139.209 -156.357
  endloop
 endfacet
 facet normal 0.0599026 -0.806959 -0.587562
  outer loop
   vertex 18.487 -139.209 -156.357
   vertex 18.7578 -139.654 -155.719
   vertex 18.0747 -139.646 -155.8
  endloop
 endfacet
 facet normal -0.267157 -0.828946 -0.491401
  outer loop
   vertex 16.2851 -139.105 -156.484
   vertex 15.7875 -139.474 -155.593
   vertex 15.702 -138.978 -156.383
  endloop
 endfacet
 facet normal -0.491893 -0.760396 -0.424074
  outer loop
   vertex 15.702 -138.978 -156.383
   vertex 15.7875 -139.474 -155.593
   vertex 15.1968 -139.038 -155.69
  endloop
 endfacet
 facet normal -0.738549 -0.644946 -0.196444
  outer loop
   vertex 15.1968 -139.038 -155.69
   vertex 15.3572 -139.459 -154.908
   vertex 15.0693 -139.197 -154.687
  endloop
 endfacet
 facet normal -0.582089 -0.792406 0.182389
  outer loop
   vertex 15.0693 -139.197 -154.687
   vertex 15.3572 -139.459 -154.908
   vertex 15.4942 -139.334 -153.926
  endloop
 endfacet
 facet normal -0.529424 -0.787229 -0.316197
  outer loop
   vertex 15.1968 -139.038 -155.69
   vertex 15.7875 -139.474 -155.593
   vertex 15.3572 -139.459 -154.908
  endloop
 endfacet
 facet normal -0.287862 -0.944055 -0.160922
  outer loop
   vertex 15.3572 -139.459 -154.908
   vertex 15.7875 -139.474 -155.593
   vertex 15.7395 -139.636 -154.555
  endloop
 endfacet
 facet normal -0.545852 -0.818181 0.180627
  outer loop
   vertex 15.3572 -139.459 -154.908
   vertex 15.7395 -139.636 -154.555
   vertex 15.4942 -139.334 -153.926
  endloop
 endfacet
 facet normal 0.0132703 -0.977055 -0.212574
  outer loop
   vertex 18.7578 -139.654 -155.719
   vertex 18.5057 -139.837 -154.896
   vertex 18.0747 -139.646 -155.8
  endloop
 endfacet
 facet normal -0.0487014 -0.981717 -0.184011
  outer loop
   vertex 18.0747 -139.646 -155.8
   vertex 18.5057 -139.837 -154.896
   vertex 17.7915 -139.813 -154.832
  endloop
 endfacet
 facet normal 0.705105 0.687009 0.175629
  outer loop
   vertex 16.7047 -134.387 -155.051
   vertex 16.303 -134.056 -154.731
   vertex 16.4676 -134.455 -153.832
  endloop
 endfacet
 facet normal 0.580678 0.778286 0.238922
  outer loop
   vertex 16.4676 -134.455 -153.832
   vertex 16.303 -134.056 -154.731
   vertex 15.8375 -133.91 -154.076
  endloop
 endfacet
 facet normal 0.459625 0.746588 0.480991
  outer loop
   vertex 16.4676 -134.455 -153.832
   vertex 15.8375 -133.91 -154.076
   vertex 15.7375 -134.345 -153.305
  endloop
 endfacet
 facet normal 0.117907 0.858159 0.499661
  outer loop
   vertex 15.7375 -134.345 -153.305
   vertex 15.8375 -133.91 -154.076
   vertex 15.2333 -134.151 -153.52
  endloop
 endfacet
 facet normal -0.0696874 0.652551 0.754534
  outer loop
   vertex 15.7375 -134.345 -153.305
   vertex 15.2333 -134.151 -153.52
   vertex 15.2037 -134.74 -153.013
  endloop
 endfacet
 facet normal -0.401631 0.608737 0.684201
  outer loop
   vertex 15.2037 -134.74 -153.013
   vertex 15.2333 -134.151 -153.52
   vertex 14.6596 -134.601 -153.456
  endloop
 endfacet
 facet normal -0.526204 0.374847 0.763282
  outer loop
   vertex 15.2037 -134.74 -153.013
   vertex 14.6596 -134.601 -153.456
   vertex 14.6229 -135.266 -153.155
  endloop
 endfacet
 facet normal -0.771381 0.29744 0.562585
  outer loop
   vertex 14.6229 -135.266 -153.155
   vertex 14.6596 -134.601 -153.456
   vertex 14.2085 -135.049 -153.838
  endloop
 endfacet
 facet normal 0.133329 0.848455 0.512199
  outer loop
   vertex 15.8375 -133.91 -154.076
   vertex 15.2889 -133.726 -154.238
   vertex 15.2333 -134.151 -153.52
  endloop
 endfacet
 facet normal -0.369219 0.812118 0.451821
  outer loop
   vertex 15.2333 -134.151 -153.52
   vertex 15.2889 -133.726 -154.238
   vertex 14.7505 -134.039 -154.116
  endloop
 endfacet
 facet normal -0.487901 0.696514 0.526138
  outer loop
   vertex 15.2333 -134.151 -153.52
   vertex 14.7505 -134.039 -154.116
   vertex 14.6596 -134.601 -153.456
  endloop
 endfacet
 facet normal -0.659522 0.614637 0.432727
  outer loop
   vertex 14.6596 -134.601 -153.456
   vertex 14.7505 -134.039 -154.116
   vertex 14.2948 -134.501 -154.153
  endloop
 endfacet
 facet normal -0.789644 0.394913 0.469581
  outer loop
   vertex 14.6596 -134.601 -153.456
   vertex 14.2948 -134.501 -154.153
   vertex 14.2085 -135.049 -153.838
  endloop
 endfacet
 facet normal -0.910999 0.304067 0.278611
  outer loop
   vertex 14.2085 -135.049 -153.838
   vertex 14.2948 -134.501 -154.153
   vertex 14.0662 -134.824 -154.548
  endloop
 endfacet
 facet normal 0.542905 0.546019 0.638058
  outer loop
   vertex 16.4676 -134.455 -153.832
   vertex 15.7375 -134.345 -153.305
   vertex 15.85 -134.868 -152.954
  endloop
 endfacet
 facet normal 0.0355944 0.563036 0.825666
  outer loop
   vertex 15.85 -134.868 -152.954
   vertex 15.7375 -134.345 -153.305
   vertex 15.2037 -134.74 -153.013
  endloop
 endfacet
 facet normal -0.0210458 0.330448 0.94359
  outer loop
   vertex 15.85 -134.868 -152.954
   vertex 15.2037 -134.74 -153.013
   vertex 15.2241 -135.419 -152.774
  endloop
 endfacet
 facet normal -0.460828 0.281454 0.841678
  outer loop
   vertex 15.2241 -135.419 -152.774
   vertex 15.2037 -134.74 -153.013
   vertex 14.6229 -135.266 -153.155
  endloop
 endfacet
 facet normal -0.834103 0.537002 0.126102
  outer loop
   vertex 14.4252 -134.175 -154.679
   vertex 14.2039 -134.477 -154.86
   vertex 14.2948 -134.501 -154.153
  endloop
 endfacet
 facet normal -0.876935 0.462967 0.129022
  outer loop
   vertex 14.2948 -134.501 -154.153
   vertex 14.2039 -134.477 -154.86
   vertex 14.0662 -134.824 -154.548
  endloop
 endfacet
 facet normal -0.701031 0.670798 0.242045
  outer loop
   vertex 14.4252 -134.175 -154.679
   vertex 14.2948 -134.501 -154.153
   vertex 14.7505 -134.039 -154.116
  endloop
 endfacet
 facet normal 0.931416 0.328905 0.155841
  outer loop
   vertex 18.6302 -135.994 -155.049
   vertex 18.4306 -135.6 -154.688
   vertex 18.4682 -136.035 -153.994
  endloop
 endfacet
 facet normal 0.773847 0.554611 0.305888
  outer loop
   vertex 18.4682 -136.035 -153.994
   vertex 18.4306 -135.6 -154.688
   vertex 17.9974 -135.429 -153.901
  endloop
 endfacet
 facet normal 0.74307 0.511355 0.431699
  outer loop
   vertex 18.4682 -136.035 -153.994
   vertex 17.9974 -135.429 -153.901
   vertex 17.9471 -135.942 -153.206
  endloop
 endfacet
 facet normal 0.459609 0.698015 0.549121
  outer loop
   vertex 17.9471 -135.942 -153.206
   vertex 17.9974 -135.429 -153.901
   vertex 17.3746 -135.72 -153.01
  endloop
 endfacet
 facet normal 0.513124 0.643012 0.568541
  outer loop
   vertex 17.9974 -135.429 -153.901
   vertex 17.1959 -135.059 -153.596
   vertex 17.3746 -135.72 -153.01
  endloop
 endfacet
 facet normal 0.306486 0.676695 0.66944
  outer loop
   vertex 17.3746 -135.72 -153.01
   vertex 17.1959 -135.059 -153.596
   vertex 16.6347 -135.599 -152.793
  endloop
 endfacet
 facet normal 0.536329 0.477406 0.696013
  outer loop
   vertex 17.1959 -135.059 -153.596
   vertex 16.451 -135.036 -153.038
   vertex 16.6347 -135.599 -152.793
  endloop
 endfacet
 facet normal 0.188162 0.442329 0.876892
  outer loop
   vertex 16.6347 -135.599 -152.793
   vertex 16.451 -135.036 -153.038
   vertex 15.9074 -135.525 -152.674
  endloop
 endfacet
 facet normal 0.940946 0.300373 0.156197
  outer loop
   vertex 18.6302 -135.994 -155.049
   vertex 18.4682 -136.035 -153.994
   vertex 18.79 -136.57 -154.903
  endloop
 endfacet
 facet normal 0.959795 0.217895 0.176963
  outer loop
   vertex 19.4312 -138.278 -154.95
   vertex 19.2572 -137.832 -154.555
   vertex 19.2546 -138.322 -153.938
  endloop
 endfacet
 facet normal 0.883895 0.364516 0.293014
  outer loop
   vertex 19.2546 -138.322 -153.938
   vertex 19.2572 -137.832 -154.555
   vertex 18.8536 -137.619 -153.603
  endloop
 endfacet
 facet normal 0.440339 0.0362925 0.897098
  outer loop
   vertex 17.4941 -137.122 -152.629
   vertex 17.5277 -137.872 -152.615
   vertex 18.1976 -137.276 -152.968
  endloop
 endfacet
 facet normal 0.348017 0.156257 0.924374
  outer loop
   vertex 18.1976 -137.276 -152.968
   vertex 17.5277 -137.872 -152.615
   vertex 18.2318 -138.014 -152.856
  endloop
 endfacet
 facet normal 0.963188 0.142104 0.2282
  outer loop
   vertex 19.2546 -138.322 -153.938
   vertex 19.3568 -139.024 -153.932
   vertex 19.5251 -138.802 -154.781
  endloop
 endfacet
 facet normal 0.961409 0.150785 0.230122
  outer loop
   vertex 19.5251 -138.802 -154.781
   vertex 19.3568 -139.024 -153.932
   vertex 19.5834 -139.35 -154.666
  endloop
 endfacet
 facet normal 0.95725 0.228788 0.176997
  outer loop
   vertex 19.4312 -138.278 -154.95
   vertex 19.2546 -138.322 -153.938
   vertex 19.5251 -138.802 -154.781
  endloop
 endfacet
 facet normal 0.296262 -0.136333 0.945326
  outer loop
   vertex 17.5277 -137.872 -152.615
   vertex 17.5461 -138.588 -152.724
   vertex 18.2318 -138.014 -152.856
  endloop
 endfacet
 facet normal 0.230474 -0.0517051 0.971704
  outer loop
   vertex 18.2318 -138.014 -152.856
   vertex 17.5461 -138.588 -152.724
   vertex 18.2484 -138.684 -152.896
  endloop
 endfacet
 facet normal -0.100663 -0.200473 0.974514
  outer loop
   vertex 16.7826 -137.792 -152.525
   vertex 16.0392 -137.716 -152.586
   vertex 16.0864 -138.425 -152.727
  endloop
 endfacet
 facet normal -0.424771 -0.203675 0.882092
  outer loop
   vertex 16.0864 -138.425 -152.727
   vertex 16.0392 -137.716 -152.586
   vertex 15.4013 -138.296 -153.027
  endloop
 endfacet
 facet normal -0.430293 -0.377506 0.819962
  outer loop
   vertex 16.0864 -138.425 -152.727
   vertex 15.4013 -138.296 -153.027
   vertex 15.5588 -138.866 -153.207
  endloop
 endfacet
 facet normal -0.764136 -0.376328 0.523903
  outer loop
   vertex 15.5588 -138.866 -153.207
   vertex 15.4013 -138.296 -153.027
   vertex 15.0017 -138.78 -153.958
  endloop
 endfacet
 facet normal -0.567326 -0.501666 0.653049
  outer loop
   vertex 14.8006 -137.352 -153.094
   vertex 14.7311 -137.985 -153.64
   vertex 15.3341 -137.583 -152.808
  endloop
 endfacet
 facet normal 0.945427 -0.0624585 0.31979
  outer loop
   vertex 19.3568 -139.024 -153.932
   vertex 19.384 -139.544 -154.114
   vertex 19.5834 -139.35 -154.666
  endloop
 endfacet
 facet normal 0.94394 -0.0377601 0.32795
  outer loop
   vertex 19.5834 -139.35 -154.666
   vertex 19.384 -139.544 -154.114
   vertex 19.5611 -139.693 -154.641
  endloop
 endfacet
 facet normal 0.140786 -0.498584 0.855332
  outer loop
   vertex 17.5461 -138.588 -152.724
   vertex 17.5748 -139.211 -153.092
   vertex 18.2484 -138.684 -152.896
  endloop
 endfacet
 facet normal 0.149304 -0.507075 0.848872
  outer loop
   vertex 18.2484 -138.684 -152.896
   vertex 17.5748 -139.211 -153.092
   vertex 18.2971 -139.274 -153.257
  endloop
 endfacet
 facet normal 0.686387 -0.605711 0.402477
  outer loop
   vertex 19.384 -139.544 -154.114
   vertex 19.3643 -139.812 -154.484
   vertex 19.5611 -139.693 -154.641
  endloop
 endfacet
 facet normal 0.568177 -0.817474 0.0943994
  outer loop
   vertex 19.5611 -139.693 -154.641
   vertex 19.3643 -139.812 -154.484
   vertex 19.4423 -139.814 -154.969
  endloop
 endfacet
 facet normal 0.0440888 -0.852905 0.5202
  outer loop
   vertex 17.5748 -139.211 -153.092
   vertex 17.6423 -139.653 -153.822
   vertex 18.2971 -139.274 -153.257
  endloop
 endfacet
 facet normal 0.0443417 -0.853023 0.519986
  outer loop
   vertex 18.2971 -139.274 -153.257
   vertex 17.6423 -139.653 -153.822
   vertex 18.3669 -139.697 -153.957
  endloop
 endfacet
 facet normal -0.0195828 -0.989406 0.143848
  outer loop
   vertex 18.5057 -139.837 -154.896
   vertex 18.3669 -139.697 -153.957
   vertex 17.7915 -139.813 -154.832
  endloop
 endfacet
 facet normal -0.0325386 -0.98782 0.15216
  outer loop
   vertex 17.7915 -139.813 -154.832
   vertex 18.3669 -139.697 -153.957
   vertex 17.6423 -139.653 -153.822
  endloop
 endfacet
endsolid
