solid ascii
 facet normal 0.643166 0.725726 -0.244253
  outer loop
   vertex -13.0312 -148.891 -144.944
   vertex -13.2672 -148.756 -145.164
   vertex -13.2391 -148.64 -144.746
  endloop
 endfacet
 facet normal 0.473136 0.84032 -0.264583
  outer loop
   vertex -13.2391 -148.64 -144.746
   vertex -13.2672 -148.756 -145.164
   vertex -13.4963 -148.526 -144.843
  endloop
 endfacet
 facet normal 0.35876 0.923585 0.135213
  outer loop
   vertex -13.2391 -148.64 -144.746
   vertex -13.4963 -148.526 -144.843
   vertex -13.3873 -148.623 -144.469
  endloop
 endfacet
 facet normal 0.139665 0.967581 0.210429
  outer loop
   vertex -13.3873 -148.623 -144.469
   vertex -13.4963 -148.526 -144.843
   vertex -13.6411 -148.561 -144.584
  endloop
 endfacet
 facet normal -0.320367 0.329829 0.888019
  outer loop
   vertex -13.3873 -148.623 -144.469
   vertex -13.6411 -148.561 -144.584
   vertex -13.3641 -148.92 -144.351
  endloop
 endfacet
 facet normal -0.722111 -0.114575 0.682223
  outer loop
   vertex -13.3641 -148.92 -144.351
   vertex -13.6411 -148.561 -144.584
   vertex -13.6794 -148.695 -144.647
  endloop
 endfacet
 facet normal -0.746341 -0.545318 0.381581
  outer loop
   vertex -13.3641 -148.92 -144.351
   vertex -13.6794 -148.695 -144.647
   vertex -13.48 -149.031 -144.736
  endloop
 endfacet
 facet normal -0.862025 -0.506332 -0.0232571
  outer loop
   vertex -13.48 -149.031 -144.736
   vertex -13.6794 -148.695 -144.647
   vertex -13.6778 -148.682 -144.995
  endloop
 endfacet
 facet normal -0.79084 -0.584224 -0.182356
  outer loop
   vertex -13.48 -149.031 -144.736
   vertex -13.6778 -148.682 -144.995
   vertex -13.3552 -149.044 -145.233
  endloop
 endfacet
 facet normal -0.728694 -0.224358 -0.647047
  outer loop
   vertex -13.3552 -149.044 -145.233
   vertex -13.6778 -148.682 -144.995
   vertex -13.549 -148.625 -145.16
  endloop
 endfacet
 facet normal 0.0822781 0.207523 -0.974764
  outer loop
   vertex -13.3552 -149.044 -145.233
   vertex -13.549 -148.625 -145.16
   vertex -13.2672 -148.756 -145.164
  endloop
 endfacet
 facet normal 0.391556 0.857042 -0.334906
  outer loop
   vertex -13.2672 -148.756 -145.164
   vertex -13.549 -148.625 -145.16
   vertex -13.4963 -148.526 -144.843
  endloop
 endfacet
 facet normal -0.802801 0.141227 -0.579281
  outer loop
   vertex -13.549 -148.625 -145.16
   vertex -13.6778 -148.682 -144.995
   vertex -13.7071 -148.506 -144.912
  endloop
 endfacet
 facet normal -0.882345 0.0736704 -0.4648
  outer loop
   vertex -13.7071 -148.506 -144.912
   vertex -13.6778 -148.682 -144.995
   vertex -13.7772 -148.542 -144.784
  endloop
 endfacet
 facet normal -0.14943 0.96943 0.194617
  outer loop
   vertex -13.7071 -148.506 -144.912
   vertex -13.7772 -148.542 -144.784
   vertex -13.6411 -148.561 -144.584
  endloop
 endfacet
 facet normal -0.828316 -0.0265262 0.559633
  outer loop
   vertex -13.6411 -148.561 -144.584
   vertex -13.7772 -148.542 -144.784
   vertex -13.6794 -148.695 -144.647
  endloop
 endfacet
 facet normal 0.19263 0.926384 -0.323585
  outer loop
   vertex -13.549 -148.625 -145.16
   vertex -13.7071 -148.506 -144.912
   vertex -13.4963 -148.526 -144.843
  endloop
 endfacet
 facet normal 0.0424707 0.986392 0.158833
  outer loop
   vertex -13.4963 -148.526 -144.843
   vertex -13.7071 -148.506 -144.912
   vertex -13.6411 -148.561 -144.584
  endloop
 endfacet
 facet normal 0.714414 0.55575 -0.425154
  outer loop
   vertex -13.0312 -148.891 -144.944
   vertex -12.9503 -149.294 -145.335
   vertex -13.2672 -148.756 -145.164
  endloop
 endfacet
 facet normal -0.0857261 0.255908 -0.962892
  outer loop
   vertex -13.2672 -148.756 -145.164
   vertex -12.9503 -149.294 -145.335
   vertex -13.3552 -149.044 -145.233
  endloop
 endfacet
 facet normal 0.862214 0.431053 -0.266044
  outer loop
   vertex -13.0312 -148.891 -144.944
   vertex -12.7962 -149.286 -144.823
   vertex -12.9503 -149.294 -145.335
  endloop
 endfacet
 facet normal 0.815027 0.521172 -0.253199
  outer loop
   vertex -12.9503 -149.294 -145.335
   vertex -12.7962 -149.286 -144.823
   vertex -12.5692 -149.836 -145.224
  endloop
 endfacet
 facet normal 0.75352 0.427563 -0.499398
  outer loop
   vertex -12.9503 -149.294 -145.335
   vertex -12.5692 -149.836 -145.224
   vertex -12.7587 -149.805 -145.483
  endloop
 endfacet
 facet normal 0.808453 0.0238232 -0.588079
  outer loop
   vertex -12.7587 -149.805 -145.483
   vertex -12.5692 -149.836 -145.224
   vertex -12.556 -150.363 -145.227
  endloop
 endfacet
 facet normal -0.677975 -0.49537 -0.543101
  outer loop
   vertex -12.7587 -149.805 -145.483
   vertex -12.556 -150.363 -145.227
   vertex -12.9876 -149.73 -145.266
  endloop
 endfacet
 facet normal -0.784069 -0.551815 -0.284142
  outer loop
   vertex -12.9876 -149.73 -145.266
   vertex -12.556 -150.363 -145.227
   vertex -12.7821 -150.212 -144.897
  endloop
 endfacet
 facet normal -0.857551 -0.488631 -0.160766
  outer loop
   vertex -12.9876 -149.73 -145.266
   vertex -12.7821 -150.212 -144.897
   vertex -13.0102 -149.866 -144.732
  endloop
 endfacet
 facet normal -0.800276 -0.586793 0.123416
  outer loop
   vertex -13.0102 -149.866 -144.732
   vertex -12.7821 -150.212 -144.897
   vertex -12.6697 -150.256 -144.377
  endloop
 endfacet
 facet normal -0.82841 -0.506922 0.23826
  outer loop
   vertex -13.0102 -149.866 -144.732
   vertex -12.6697 -150.256 -144.377
   vertex -13.1005 -149.54 -144.353
  endloop
 endfacet
 facet normal -0.747403 -0.466157 0.473377
  outer loop
   vertex -13.1005 -149.54 -144.353
   vertex -12.6697 -150.256 -144.377
   vertex -12.7777 -149.822 -144.121
  endloop
 endfacet
 facet normal -0.40397 0.259244 0.877269
  outer loop
   vertex -13.1005 -149.54 -144.353
   vertex -12.7777 -149.822 -144.121
   vertex -12.8644 -149.428 -144.277
  endloop
 endfacet
 facet normal 0.767328 0.374827 0.5203
  outer loop
   vertex -12.8644 -149.428 -144.277
   vertex -12.7777 -149.822 -144.121
   vertex -12.4968 -150.071 -144.355
  endloop
 endfacet
 facet normal 0.835264 0.436159 0.334814
  outer loop
   vertex -12.8644 -149.428 -144.277
   vertex -12.4968 -150.071 -144.355
   vertex -12.5566 -149.714 -144.672
  endloop
 endfacet
 facet normal 0.919256 0.335748 0.20553
  outer loop
   vertex -12.5566 -149.714 -144.672
   vertex -12.4968 -150.071 -144.355
   vertex -12.3699 -150.107 -144.865
  endloop
 endfacet
 facet normal 0.87132 0.474521 -0.125028
  outer loop
   vertex -12.5566 -149.714 -144.672
   vertex -12.3699 -150.107 -144.865
   vertex -12.5692 -149.836 -145.224
  endloop
 endfacet
 facet normal 0.906596 0.346166 -0.241358
  outer loop
   vertex -12.5692 -149.836 -145.224
   vertex -12.3699 -150.107 -144.865
   vertex -12.3395 -150.387 -145.152
  endloop
 endfacet
 facet normal 0.330074 0.0140267 -0.943851
  outer loop
   vertex -12.5692 -149.836 -145.224
   vertex -12.3395 -150.387 -145.152
   vertex -12.556 -150.363 -145.227
  endloop
 endfacet
 facet normal 0.307171 -0.167809 -0.936742
  outer loop
   vertex -12.556 -150.363 -145.227
   vertex -12.3395 -150.387 -145.152
   vertex -12.2297 -150.954 -145.015
  endloop
 endfacet
 facet normal -0.568358 -0.538229 -0.622317
  outer loop
   vertex -12.556 -150.363 -145.227
   vertex -12.2297 -150.954 -145.015
   vertex -12.3057 -151.036 -144.874
  endloop
 endfacet
 facet normal -0.742214 -0.320742 -0.588424
  outer loop
   vertex -12.3057 -151.036 -144.874
   vertex -12.2297 -150.954 -145.015
   vertex -12.1552 -151.367 -144.883
  endloop
 endfacet
 facet normal -0.907638 -0.410542 -0.087455
  outer loop
   vertex -12.3057 -151.036 -144.874
   vertex -12.1552 -151.367 -144.883
   vertex -12.168 -151.375 -144.712
  endloop
 endfacet
 facet normal -0.916312 -0.390862 -0.0871706
  outer loop
   vertex -12.168 -151.375 -144.712
   vertex -12.1552 -151.367 -144.883
   vertex -12.1048 -151.506 -144.788
  endloop
 endfacet
 facet normal -0.428665 -0.59812 0.677125
  outer loop
   vertex -12.168 -151.375 -144.712
   vertex -12.1048 -151.506 -144.788
   vertex -12.127 -151.378 -144.689
  endloop
 endfacet
 facet normal 0.990689 0.1109 0.0789685
  outer loop
   vertex -12.127 -151.378 -144.689
   vertex -12.1048 -151.506 -144.788
   vertex -12.1143 -151.37 -144.861
  endloop
 endfacet
 facet normal 0.987252 0.137586 0.0800216
  outer loop
   vertex -12.127 -151.378 -144.689
   vertex -12.1143 -151.37 -144.861
   vertex -12.1707 -151.061 -144.696
  endloop
 endfacet
 facet normal 0.967744 0.230638 -0.101377
  outer loop
   vertex -12.1707 -151.061 -144.696
   vertex -12.1143 -151.37 -144.861
   vertex -12.2297 -150.954 -145.015
  endloop
 endfacet
 facet normal 0.97975 0.152203 -0.130097
  outer loop
   vertex -12.1707 -151.061 -144.696
   vertex -12.2297 -150.954 -145.015
   vertex -12.2551 -150.565 -144.751
  endloop
 endfacet
 facet normal 0.978182 0.156515 -0.136611
  outer loop
   vertex -12.2551 -150.565 -144.751
   vertex -12.2297 -150.954 -145.015
   vertex -12.3395 -150.387 -145.152
  endloop
 endfacet
 facet normal 0.970245 0.216517 -0.10837
  outer loop
   vertex -12.2551 -150.565 -144.751
   vertex -12.3395 -150.387 -145.152
   vertex -12.3699 -150.107 -144.865
  endloop
 endfacet
 facet normal -0.832225 -0.553877 -0.0249421
  outer loop
   vertex -13.7772 -148.542 -144.784
   vertex -13.6778 -148.682 -144.995
   vertex -13.6794 -148.695 -144.647
  endloop
 endfacet
 facet normal 0.883529 0.452624 -0.12045
  outer loop
   vertex -12.5692 -149.836 -145.224
   vertex -12.7962 -149.286 -144.823
   vertex -12.5566 -149.714 -144.672
  endloop
 endfacet
 facet normal 0.808192 0.537719 0.240175
  outer loop
   vertex -12.5566 -149.714 -144.672
   vertex -12.7962 -149.286 -144.823
   vertex -12.8644 -149.428 -144.277
  endloop
 endfacet
 facet normal -0.313315 -0.122056 -0.941773
  outer loop
   vertex -13.3552 -149.044 -145.233
   vertex -12.9503 -149.294 -145.335
   vertex -12.9876 -149.73 -145.266
  endloop
 endfacet
 facet normal -0.696415 -0.0534755 -0.715644
  outer loop
   vertex -12.9876 -149.73 -145.266
   vertex -12.9503 -149.294 -145.335
   vertex -12.7587 -149.805 -145.483
  endloop
 endfacet
 facet normal -0.890364 -0.402681 -0.21237
  outer loop
   vertex -13.3552 -149.044 -145.233
   vertex -13.2521 -149.448 -144.899
   vertex -13.48 -149.031 -144.736
  endloop
 endfacet
 facet normal -0.843114 -0.517341 0.146685
  outer loop
   vertex -13.48 -149.031 -144.736
   vertex -13.2521 -149.448 -144.899
   vertex -13.1005 -149.54 -144.353
  endloop
 endfacet
 facet normal -0.85724 -0.365161 0.363039
  outer loop
   vertex -13.48 -149.031 -144.736
   vertex -13.1005 -149.54 -144.353
   vertex -13.3641 -148.92 -144.351
  endloop
 endfacet
 facet normal -0.253972 -0.111038 0.960817
  outer loop
   vertex -13.3641 -148.92 -144.351
   vertex -13.1005 -149.54 -144.353
   vertex -12.8644 -149.428 -144.277
  endloop
 endfacet
 facet normal 0.337464 0.451296 0.826105
  outer loop
   vertex -13.3641 -148.92 -144.351
   vertex -12.8644 -149.428 -144.277
   vertex -13.0938 -148.888 -144.478
  endloop
 endfacet
 facet normal 0.863713 0.451129 0.224683
  outer loop
   vertex -13.0938 -148.888 -144.478
   vertex -12.8644 -149.428 -144.277
   vertex -12.7962 -149.286 -144.823
  endloop
 endfacet
 facet normal 0.839361 0.532326 0.110006
  outer loop
   vertex -13.0938 -148.888 -144.478
   vertex -12.7962 -149.286 -144.823
   vertex -13.0312 -148.891 -144.944
  endloop
 endfacet
 facet normal -0.852971 -0.444147 -0.274179
  outer loop
   vertex -13.3552 -149.044 -145.233
   vertex -12.9876 -149.73 -145.266
   vertex -13.2521 -149.448 -144.899
  endloop
 endfacet
 facet normal -0.820406 -0.54481 -0.173537
  outer loop
   vertex -13.2521 -149.448 -144.899
   vertex -12.9876 -149.73 -145.266
   vertex -13.0102 -149.866 -144.732
  endloop
 endfacet
 facet normal -0.880845 -0.441892 0.169832
  outer loop
   vertex -13.2521 -149.448 -144.899
   vertex -13.0102 -149.866 -144.732
   vertex -13.1005 -149.54 -144.353
  endloop
 endfacet
 facet normal -0.881375 -0.430188 -0.195233
  outer loop
   vertex -12.556 -150.363 -145.227
   vertex -12.3057 -151.036 -144.874
   vertex -12.5275 -150.634 -144.76
  endloop
 endfacet
 facet normal -0.862156 -0.499268 0.0861287
  outer loop
   vertex -12.5275 -150.634 -144.76
   vertex -12.3057 -151.036 -144.874
   vertex -12.2992 -150.992 -144.55
  endloop
 endfacet
 facet normal -0.870248 -0.471622 0.142273
  outer loop
   vertex -12.5275 -150.634 -144.76
   vertex -12.2992 -150.992 -144.55
   vertex -12.6697 -150.256 -144.377
  endloop
 endfacet
 facet normal -0.272685 -0.348597 0.896729
  outer loop
   vertex -12.6697 -150.256 -144.377
   vertex -12.2992 -150.992 -144.55
   vertex -12.3298 -150.63 -144.419
  endloop
 endfacet
 facet normal -0.00248508 -0.113894 0.99349
  outer loop
   vertex -12.6697 -150.256 -144.377
   vertex -12.3298 -150.63 -144.419
   vertex -12.4968 -150.071 -144.355
  endloop
 endfacet
 facet normal 0.933148 0.249606 0.258713
  outer loop
   vertex -12.4968 -150.071 -144.355
   vertex -12.3298 -150.63 -144.419
   vertex -12.2551 -150.565 -144.751
  endloop
 endfacet
 facet normal 0.934035 0.286985 0.212647
  outer loop
   vertex -12.4968 -150.071 -144.355
   vertex -12.2551 -150.565 -144.751
   vertex -12.3699 -150.107 -144.865
  endloop
 endfacet
 facet normal -0.780012 -0.561045 -0.277145
  outer loop
   vertex -12.556 -150.363 -145.227
   vertex -12.5275 -150.634 -144.76
   vertex -12.7821 -150.212 -144.897
  endloop
 endfacet
 facet normal -0.867236 -0.475603 0.147324
  outer loop
   vertex -12.7821 -150.212 -144.897
   vertex -12.5275 -150.634 -144.76
   vertex -12.6697 -150.256 -144.377
  endloop
 endfacet
 facet normal 0.463972 -0.191232 -0.864962
  outer loop
   vertex -12.2297 -150.954 -145.015
   vertex -12.1143 -151.37 -144.861
   vertex -12.1552 -151.367 -144.883
  endloop
 endfacet
 facet normal 0.419549 -0.404199 -0.812774
  outer loop
   vertex -12.1552 -151.367 -144.883
   vertex -12.1143 -151.37 -144.861
   vertex -12.1048 -151.506 -144.788
  endloop
 endfacet
 facet normal 0.804809 0.584157 0.105088
  outer loop
   vertex -13.0312 -148.891 -144.944
   vertex -13.2391 -148.64 -144.746
   vertex -13.0938 -148.888 -144.478
  endloop
 endfacet
 facet normal 0.644513 0.702529 0.301755
  outer loop
   vertex -13.0938 -148.888 -144.478
   vertex -13.2391 -148.64 -144.746
   vertex -13.3873 -148.623 -144.469
  endloop
 endfacet
 facet normal 0.360932 0.370359 0.855899
  outer loop
   vertex -13.0938 -148.888 -144.478
   vertex -13.3873 -148.623 -144.469
   vertex -13.3641 -148.92 -144.351
  endloop
 endfacet
 facet normal 0.337691 -0.415377 0.844646
  outer loop
   vertex -12.7777 -149.822 -144.121
   vertex -12.6697 -150.256 -144.377
   vertex -12.4968 -150.071 -144.355
  endloop
 endfacet
 facet normal 0.687049 -0.196032 0.699668
  outer loop
   vertex -12.3298 -150.63 -144.419
   vertex -12.2992 -150.992 -144.55
   vertex -12.1707 -151.061 -144.696
  endloop
 endfacet
 facet normal 0.772078 0.119939 0.624108
  outer loop
   vertex -12.1707 -151.061 -144.696
   vertex -12.2992 -150.992 -144.55
   vertex -12.127 -151.378 -144.689
  endloop
 endfacet
 facet normal 0.949425 0.189244 0.250556
  outer loop
   vertex -12.2551 -150.565 -144.751
   vertex -12.3298 -150.63 -144.419
   vertex -12.1707 -151.061 -144.696
  endloop
 endfacet
 facet normal -0.460097 -0.4741 0.750693
  outer loop
   vertex -12.127 -151.378 -144.689
   vertex -12.2992 -150.992 -144.55
   vertex -12.168 -151.375 -144.712
  endloop
 endfacet
 facet normal -0.93504 -0.348201 0.0667561
  outer loop
   vertex -12.168 -151.375 -144.712
   vertex -12.2992 -150.992 -144.55
   vertex -12.3057 -151.036 -144.874
  endloop
 endfacet
endsolid
